<?xml version="1.0" encoding="utf-8"?>
<!-- Generator: Adobe Illustrator 15.1.0, SVG Export Plug-In . SVG Version: 6.00 Build 0)  -->
<!DOCTYPE svg PUBLIC "-//W3C//DTD SVG 1.1//EN" "http://www.w3.org/Graphics/SVG/1.1/DTD/svg11.dtd">
<svg version="1.1" id="Layer_1" xmlns="http://www.w3.org/2000/svg" xmlns:xlink="http://www.w3.org/1999/xlink" x="0px" y="0px"
	 width="792px" height="612px" viewBox="0 0 792 612" enable-background="new 0 0 792 612" xml:space="preserve">
<ellipse fill="#F5C218" cx="345.994" cy="303.363" rx="265.924" ry="267.273"/>
<ellipse fill="#CF2A29" cx="346.253" cy="303.68" rx="218.234" ry="221.339"/>
<g>
	
		<line fill-rule="evenodd" clip-rule="evenodd" fill="none" stroke="#000000" stroke-width="0.8618" stroke-miterlimit="3.8637" x1="132.118" y1="261.517" x2="132.118" y2="341.758"/>
	
		<line fill-rule="evenodd" clip-rule="evenodd" fill="none" stroke="#000000" stroke-width="0.8618" stroke-miterlimit="3.8637" x1="142.354" y1="223.992" x2="142.354" y2="378.499"/>
	
		<line fill-rule="evenodd" clip-rule="evenodd" fill="none" stroke="#000000" stroke-width="0.8618" stroke-miterlimit="3.8637" x1="152.59" y1="201.945" x2="152.59" y2="402.909"/>
	
		<line fill-rule="evenodd" clip-rule="evenodd" fill="none" stroke="#000000" stroke-width="0.8618" stroke-miterlimit="3.8637" x1="162.826" y1="184.621" x2="162.826" y2="421.338"/>
	
		<line fill-rule="evenodd" clip-rule="evenodd" fill="none" stroke="#000000" stroke-width="0.8618" stroke-miterlimit="3.8637" x1="173.063" y1="167.766" x2="173.063" y2="435.511"/>
	
		<line fill-rule="evenodd" clip-rule="evenodd" fill="none" stroke="#000000" stroke-width="0.8618" stroke-miterlimit="3.8637" x1="183.298" y1="156.741" x2="183.298" y2="448.898"/>
	
		<line fill-rule="evenodd" clip-rule="evenodd" fill="none" stroke="#000000" stroke-width="0.8618" stroke-miterlimit="3.8637" x1="193.534" y1="145.719" x2="193.534" y2="460.709"/>
	
		<line fill-rule="evenodd" clip-rule="evenodd" fill="none" stroke="#000000" stroke-width="0.8618" stroke-miterlimit="3.8637" x1="203.771" y1="136.269" x2="203.771" y2="469.688"/>
	
		<line fill-rule="evenodd" clip-rule="evenodd" fill="none" stroke="#000000" stroke-width="0.8618" stroke-miterlimit="3.8637" x1="216.686" y1="438.662" x2="216.686" y2="480.714"/>
	
		<line fill-rule="evenodd" clip-rule="evenodd" fill="none" stroke="#000000" stroke-width="0.8618" stroke-miterlimit="3.8637" x1="229.601" y1="436.962" x2="229.601" y2="488.588"/>
	
		<line fill-rule="evenodd" clip-rule="evenodd" fill="none" stroke="#000000" stroke-width="0.8618" stroke-miterlimit="3.8637" x1="242.517" y1="446.531" x2="242.517" y2="497.249"/>
	
		<line fill-rule="evenodd" clip-rule="evenodd" fill="none" stroke="#000000" stroke-width="0.8618" stroke-miterlimit="3.8637" x1="255.433" y1="455.203" x2="255.433" y2="504.338"/>
	
		<line fill-rule="evenodd" clip-rule="evenodd" fill="none" stroke="#000000" stroke-width="0.8618" stroke-miterlimit="3.8637" x1="268.348" y1="461.782" x2="268.348" y2="509.062"/>
	
		<line fill-rule="evenodd" clip-rule="evenodd" fill="none" stroke="#000000" stroke-width="0.8618" stroke-miterlimit="3.8637" x1="281.264" y1="469.856" x2="281.264" y2="512.997"/>
	
		<line fill-rule="evenodd" clip-rule="evenodd" fill="none" stroke="#000000" stroke-width="0.8618" stroke-miterlimit="3.8637" x1="294.18" y1="479.424" x2="294.18" y2="516.148"/>
	
		<line fill-rule="evenodd" clip-rule="evenodd" fill="none" stroke="#000000" stroke-width="0.8618" stroke-miterlimit="3.8637" x1="307.097" y1="488.096" x2="307.097" y2="520.086"/>
	
		<line fill-rule="evenodd" clip-rule="evenodd" fill="none" stroke="#000000" stroke-width="0.8618" stroke-miterlimit="3.8637" x1="320.012" y1="494.675" x2="320.012" y2="521.662"/>
	
		<line fill-rule="evenodd" clip-rule="evenodd" fill="none" stroke="#000000" stroke-width="0.8618" stroke-miterlimit="3.8637" x1="332.927" y1="507.233" x2="332.927" y2="523.237"/>
	
		<line fill-rule="evenodd" clip-rule="evenodd" fill="none" stroke="#000000" stroke-width="0.8618" stroke-miterlimit="3.8637" x1="558.031" y1="261.517" x2="558.031" y2="350.619"/>
	
		<line fill-rule="evenodd" clip-rule="evenodd" fill="none" stroke="#000000" stroke-width="0.8618" stroke-miterlimit="3.8637" x1="548.669" y1="225.237" x2="548.669" y2="381.748"/>
	
		<line fill-rule="evenodd" clip-rule="evenodd" fill="none" stroke="#000000" stroke-width="0.8618" stroke-miterlimit="3.8637" x1="539.305" y1="204.789" x2="539.305" y2="403.976"/>
	
		<line fill-rule="evenodd" clip-rule="evenodd" fill="none" stroke="#000000" stroke-width="0.8618" stroke-miterlimit="3.8637" x1="529.941" y1="187.008" x2="529.941" y2="419.991"/>
	
		<line fill-rule="evenodd" clip-rule="evenodd" fill="none" stroke="#000000" stroke-width="0.8618" stroke-miterlimit="3.8637" x1="520.579" y1="173.66" x2="520.579" y2="435.106"/>
	
		<line fill-rule="evenodd" clip-rule="evenodd" fill="none" stroke="#000000" stroke-width="0.8618" stroke-miterlimit="3.8637" x1="511.217" y1="161.212" x2="511.217" y2="444.884"/>
	
		<line fill-rule="evenodd" clip-rule="evenodd" fill="none" stroke="#000000" stroke-width="0.8618" stroke-miterlimit="3.8637" x1="501.853" y1="149.654" x2="501.853" y2="457.332"/>
	
		<line fill-rule="evenodd" clip-rule="evenodd" fill="none" stroke="#000000" stroke-width="0.8618" stroke-miterlimit="3.8637" x1="492.49" y1="140.764" x2="492.49" y2="464.443"/>
	
		<line fill-rule="evenodd" clip-rule="evenodd" fill="none" stroke="#000000" stroke-width="0.8618" stroke-miterlimit="3.8637" x1="479.794" y1="440.245" x2="479.794" y2="477.141"/>
	
		<line fill-rule="evenodd" clip-rule="evenodd" fill="none" stroke="#000000" stroke-width="0.8618" stroke-miterlimit="3.8637" x1="467.098" y1="448.947" x2="467.098" y2="486.524"/>
	
		<line fill-rule="evenodd" clip-rule="evenodd" fill="none" stroke="#000000" stroke-width="0.8618" stroke-miterlimit="3.8637" x1="454.4" y1="435.168" x2="454.4" y2="494.255"/>
	
		<line fill-rule="evenodd" clip-rule="evenodd" fill="none" stroke="#000000" stroke-width="0.8618" stroke-miterlimit="3.8637" x1="441.704" y1="444.139" x2="441.704" y2="501.431"/>
	
		<line fill-rule="evenodd" clip-rule="evenodd" fill="none" stroke="#000000" stroke-width="0.8618" stroke-miterlimit="3.8637" x1="429.008" y1="453.408" x2="429.008" y2="506.953"/>
	
		<line fill-rule="evenodd" clip-rule="evenodd" fill="none" stroke="#000000" stroke-width="0.8618" stroke-miterlimit="3.8637" x1="416.312" y1="462.978" x2="416.312" y2="511.37"/>
	
		<line fill-rule="evenodd" clip-rule="evenodd" fill="none" stroke="#000000" stroke-width="0.8618" stroke-miterlimit="3.8637" x1="403.614" y1="469.556" x2="403.614" y2="516.891"/>
	
		<line fill-rule="evenodd" clip-rule="evenodd" fill="none" stroke="#000000" stroke-width="0.8618" stroke-miterlimit="3.8637" x1="390.918" y1="478.825" x2="390.918" y2="520.202"/>
	
		<line fill-rule="evenodd" clip-rule="evenodd" fill="none" stroke="#000000" stroke-width="0.8618" stroke-miterlimit="3.8637" x1="378.221" y1="486.602" x2="378.221" y2="521.307"/>
	
		<line fill-rule="evenodd" clip-rule="evenodd" fill="none" stroke="#000000" stroke-width="0.8618" stroke-miterlimit="3.8637" x1="365.523" y1="494.077" x2="365.523" y2="522.41"/>
	
		<line fill-rule="evenodd" clip-rule="evenodd" fill="none" stroke="#000000" stroke-width="0.8618" stroke-miterlimit="3.8637" x1="479.751" y1="127.65" x2="479.751" y2="449.631"/>
	
		<line fill-rule="evenodd" clip-rule="evenodd" fill="none" stroke="#000000" stroke-width="0.8618" stroke-miterlimit="3.8637" x1="467.014" y1="120.925" x2="467.014" y2="450.79"/>
	
		<line fill-rule="evenodd" clip-rule="evenodd" fill="none" stroke="#000000" stroke-width="0.8618" stroke-miterlimit="3.8637" x1="454.274" y1="112.637" x2="454.274" y2="134.817"/>
	
		<line fill-rule="evenodd" clip-rule="evenodd" fill="none" stroke="#000000" stroke-width="0.8618" stroke-miterlimit="3.8637" x1="441.535" y1="104.69" x2="441.535" y2="131.683"/>
	
		<line fill-rule="evenodd" clip-rule="evenodd" fill="none" stroke="#000000" stroke-width="0.8618" stroke-miterlimit="3.8637" x1="428.796" y1="97.354" x2="428.796" y2="129.117"/>
	
		<line fill-rule="evenodd" clip-rule="evenodd" fill="none" stroke="#000000" stroke-width="0.8618" stroke-miterlimit="3.8637" x1="416.057" y1="93.075" x2="416.057" y2="125.125"/>
	
		<line fill-rule="evenodd" clip-rule="evenodd" fill="none" stroke="#000000" stroke-width="0.8618" stroke-miterlimit="3.8637" x1="403.319" y1="89.41" x2="403.319" y2="122.845"/>
	
		<line fill-rule="evenodd" clip-rule="evenodd" fill="none" stroke="#000000" stroke-width="0.8618" stroke-miterlimit="3.8637" x1="390.58" y1="86.351" x2="390.58" y2="121.011"/>
	
		<line fill-rule="evenodd" clip-rule="evenodd" fill="none" stroke="#000000" stroke-width="0.8618" stroke-miterlimit="3.8637" x1="377.84" y1="83.906" x2="377.84" y2="116.288"/>
	
		<line fill-rule="evenodd" clip-rule="evenodd" fill="none" stroke="#000000" stroke-width="0.8618" stroke-miterlimit="3.8637" x1="365.103" y1="82.073" x2="365.103" y2="113.437"/>
	
		<line fill-rule="evenodd" clip-rule="evenodd" fill="none" stroke="#000000" stroke-width="0.8618" stroke-miterlimit="3.8637" x1="352.363" y1="83.295" x2="352.363" y2="108.306"/>
	
		<line fill-rule="evenodd" clip-rule="evenodd" fill="none" stroke="#000000" stroke-width="0.8618" stroke-miterlimit="3.8637" x1="339.644" y1="81.545" x2="339.565" y2="106.306"/>
	
		<line fill-rule="evenodd" clip-rule="evenodd" fill="none" stroke="#000000" stroke-width="0.8618" stroke-miterlimit="3.8637" x1="326.886" y1="83.906" x2="326.886" y2="110.301"/>
	
		<line fill-rule="evenodd" clip-rule="evenodd" fill="none" stroke="#000000" stroke-width="0.8618" stroke-miterlimit="3.8637" x1="314.147" y1="85.13" x2="314.147" y2="114.577"/>
	
		<line fill-rule="evenodd" clip-rule="evenodd" fill="none" stroke="#000000" stroke-width="0.8618" stroke-miterlimit="3.8637" x1="301.408" y1="87.575" x2="301.408" y2="117.713"/>
	
		<line fill-rule="evenodd" clip-rule="evenodd" fill="none" stroke="#000000" stroke-width="0.8618" stroke-miterlimit="3.8637" x1="288.669" y1="90.02" x2="288.669" y2="121.705"/>
	
		<line fill-rule="evenodd" clip-rule="evenodd" fill="none" stroke="#000000" stroke-width="0.8618" stroke-miterlimit="3.8637" x1="275.931" y1="94.91" x2="275.931" y2="124.555"/>
	
		<line fill-rule="evenodd" clip-rule="evenodd" fill="none" stroke="#000000" stroke-width="0.8618" stroke-miterlimit="3.8637" x1="263.192" y1="98.578" x2="263.192" y2="129.402"/>
	
		<line fill-rule="evenodd" clip-rule="evenodd" fill="none" stroke="#000000" stroke-width="0.8618" stroke-miterlimit="3.8637" x1="250.453" y1="104.69" x2="250.453" y2="132.744"/>
	
		<line fill-rule="evenodd" clip-rule="evenodd" fill="none" stroke="#000000" stroke-width="0.8618" stroke-miterlimit="3.8637" x1="237.715" y1="109.144" x2="237.715" y2="142.231"/>
	
		<line fill-rule="evenodd" clip-rule="evenodd" fill="none" stroke="#000000" stroke-width="0.8618" stroke-miterlimit="3.8637" x1="216.699" y1="123.643" x2="216.699" y2="438.709"/>
</g>
<polygon fill-rule="evenodd" clip-rule="evenodd" fill="#FEC80E" points="240.301,205.099 454.671,205.099 454.671,146.495 
	458.312,146.495 458.312,134.962 341.113,103.671 237.874,134.962 237.874,145.888 237.874,151.958 240.301,151.958 "/>
<polygon fill-rule="evenodd" clip-rule="evenodd" fill="#1474B9" points="229.06,200.827 462.188,200.827 465.086,409.496 
	345.625,480.732 229.06,416.803 "/>
<path fill-rule="evenodd" clip-rule="evenodd" fill="#FFFFFF" d="M465.874,421.251c0.082-0.43,0.151-0.854,0.212-1.273
	c0.007-0.055,0.017-0.107,0.021-0.162c0.583-4.276,0.127-7.954,0.127-7.954V141.212l-34.337,0.627v252.842
	c0.057,15.558-12.717,26.508-14.763,28.164l-70.385,47.886l-68.186-49.482l-1.668-1.212c0.022,0.014,0.042,0.024,0.064,0.036
	c0,0-15.717-11.712-15.932-29.637l0.009-4.211l0.564-244.386l-39.191-0.627v273.402c-0.058-0.002-0.115-0.016-0.173-0.014
	c0,0-0.665,21.368,13.007,28.803c0,0-0.004-0.023-0.005-0.03l107.439,72.454l113.692-77.934c0,0,0.263-0.298,0.7-0.831
	C459.702,434.704,464.474,429.399,465.874,421.251z"/>
<g>
	<path fill-rule="evenodd" clip-rule="evenodd" d="M230.295,94.729l-9.957,4.976l0.093,4.281c0.021,1.061,0.142,1.803,0.364,2.22
		c0.177,0.334,0.518,0.532,1.025,0.599c0.505,0.065,1.398-0.171,2.674-0.716l0.315,0.593l-8.112,4.051l-0.313-0.592
		c0.987-0.697,1.571-1.253,1.75-1.668c0.371-0.838,0.529-2.24,0.474-4.211l-0.492-22.495l0.639-0.317l18.581,13.704
		c1.494,1.099,2.65,1.721,3.468,1.861c0.817,0.141,1.763-0.022,2.841-0.492l0.314,0.593l-10.134,5.063l-0.313-0.594
		c1-0.554,1.615-1.045,1.841-1.471c0.23-0.426,0.25-0.817,0.062-1.173c-0.25-0.472-0.9-1.092-1.947-1.86L230.295,94.729z
		 M229.085,93.834l-9.005-6.653l0.225,11.04L229.085,93.834z"/>
	<path fill-rule="evenodd" clip-rule="evenodd" d="M287.713,52.566l1.936,5.535l-0.772,0.226c-0.437-0.944-0.846-1.589-1.227-1.935
		c-0.62-0.561-1.324-0.899-2.116-1.02c-0.792-0.12-1.755-0.014-2.894,0.317l-3.876,1.13l5.339,18.263
		c0.432,1.474,0.883,2.341,1.354,2.601c0.656,0.344,1.518,0.361,2.584,0.05l0.952-0.278l0.189,0.65l-11.721,3.417l-0.19-0.649
		l0.987-0.288c1.179-0.344,1.926-0.893,2.239-1.651c0.192-0.465,0.09-1.369-0.3-2.712l-5.341-18.263l-3.308,0.964
		c-1.287,0.375-2.174,0.723-2.667,1.045c-0.639,0.428-1.116,1.032-1.431,1.812c-0.315,0.782-0.363,1.726-0.141,2.833l-0.771,0.225
		l-1.353-5.707L287.713,52.566z"/>
	<path fill-rule="evenodd" clip-rule="evenodd" d="M307.549,47.869c3.399-0.586,6.515,0.203,9.35,2.366
		c2.833,2.164,4.507,5.185,5.021,9.063c0.528,3.996-0.288,7.53-2.451,10.599c-2.163,3.071-5.027,4.913-8.595,5.526
		c-3.605,0.624-6.804-0.143-9.597-2.292c-2.792-2.149-4.46-5.269-5-9.355c-0.551-4.176,0.415-7.827,2.898-10.953
		C301.331,50.111,304.123,48.459,307.549,47.869z M307.365,49.323c-2.339,0.402-4.102,1.599-5.287,3.589
		c-1.475,2.477-1.936,5.811-1.38,10.004c0.569,4.294,1.917,7.443,4.05,9.445c1.635,1.518,3.604,2.079,5.905,1.681
		c2.456-0.424,4.357-1.736,5.704-3.941c1.347-2.203,1.745-5.38,1.196-9.534c-0.596-4.504-1.919-7.709-3.974-9.618
		C311.932,49.435,309.86,48.892,307.365,49.323z"/>
	<path fill-rule="evenodd" clip-rule="evenodd" d="M327.296,45.129l7.58,0.064l17.164,19.865l0.095-15.162
		c0.01-1.616-0.181-2.625-0.572-3.031c-0.515-0.548-1.333-0.827-2.458-0.835l-0.989-0.008l0.004-0.714l9.917,0.086l-0.006,0.713
		l-1.011-0.009c-1.206-0.011-2.064,0.318-2.574,0.986c-0.312,0.411-0.472,1.354-0.482,2.828l-0.138,22.125l-0.75-0.007
		L334.64,50.722l-0.103,16.17c-0.008,1.617,0.174,2.628,0.551,3.032c0.53,0.548,1.349,0.827,2.458,0.835l1.01,0.009l-0.005,0.712
		l-9.914-0.084l0.005-0.714l0.989,0.009c1.222,0.011,2.087-0.319,2.596-0.986c0.312-0.41,0.472-1.354,0.481-2.829l0.115-18.255
		c-0.813-0.898-1.429-1.49-1.85-1.778c-0.42-0.289-1.039-0.559-1.854-0.812c-0.401-0.118-1.011-0.182-1.828-0.19L327.296,45.129z"/>
	<path fill-rule="evenodd" clip-rule="evenodd" d="M377.571,47.771c3.343,0.657,6.055,2.516,8.143,5.581
		c2.085,3.067,2.857,6.534,2.314,10.403c-0.559,3.984-2.256,7.051-5.094,9.197c-2.837,2.147-6.009,2.877-9.517,2.19
		c-3.543-0.693-6.339-2.561-8.392-5.602c-2.047-3.038-2.79-6.594-2.217-10.669c0.585-4.166,2.454-7.291,5.607-9.376
		C371.152,47.687,374.205,47.113,377.571,47.771z M377.018,49.088c-2.301-0.452-4.268,0.058-5.903,1.527
		c-2.035,1.83-3.349,4.833-3.935,9.015c-0.601,4.283-0.166,7.757,1.305,10.417c1.13,2.025,2.828,3.26,5.091,3.704
		c2.414,0.472,4.542-0.097,6.386-1.712c1.845-1.613,3.057-4.493,3.637-8.636c0.631-4.491,0.235-8.008-1.187-10.554
		C381.268,50.821,379.47,49.568,377.018,49.088z"/>
	<path fill-rule="evenodd" clip-rule="evenodd" d="M407.97,78.891l-5.148-23.253l-4.469,16.124
		c-0.412,1.485-0.481,2.465-0.206,2.936c0.376,0.639,1.117,1.11,2.229,1.416l0.999,0.271l-0.182,0.655l-9.81-2.677l0.18-0.655
		l1.001,0.274c1.195,0.326,2.126,0.248,2.798-0.234c0.41-0.299,0.806-1.125,1.18-2.479l4.369-15.765
		c0.295-1.069,0.372-1.88,0.225-2.432c-0.101-0.397-0.376-0.784-0.833-1.158c-0.458-0.375-1.262-0.719-2.413-1.033l0.181-0.655
		l7.996,2.183l4.833,21.618l15.205-16.148l7.922,2.162l-0.181,0.656l-0.979-0.269c-1.21-0.329-2.15-0.253-2.819,0.229
		c-0.412,0.295-0.804,1.124-1.182,2.479l-4.367,15.763c-0.409,1.487-0.475,2.468-0.187,2.943c0.375,0.638,1.118,1.11,2.229,1.414
		l0.981,0.267l-0.183,0.656l-11.958-3.263l0.18-0.657l1.001,0.274c1.209,0.329,2.144,0.251,2.799-0.233
		c0.412-0.297,0.807-1.124,1.181-2.48l4.468-16.123l-16.366,17.379L407.97,78.891z"/>
	<path fill-rule="evenodd" clip-rule="evenodd" d="M448.397,87.248l-9.736-5.65l-3.438,2.806c-0.856,0.693-1.394,1.272-1.607,1.735
		c-0.172,0.366-0.141,0.796,0.097,1.287c0.232,0.49,0.938,1.127,2.106,1.913l-0.303,0.655l-7.931-4.602l0.303-0.654
		c1.135,0.429,1.919,0.593,2.361,0.487c0.893-0.205,2.13-0.958,3.705-2.259l18.084-14.744l0.626,0.363l-0.601,25.161
		c-0.046,2.022,0.108,3.439,0.456,4.254c0.354,0.813,1.027,1.546,2.023,2.201l-0.306,0.655l-9.907-5.748l0.303-0.655
		c1.023,0.533,1.774,0.764,2.251,0.694c0.48-0.069,0.813-0.299,0.994-0.691c0.243-0.523,0.381-1.493,0.41-2.907L448.397,87.248z
		 M448.44,85.607l0.295-12.205l-8.88,7.223L448.44,85.607z"/>
	<path d="M233.69,73.558l-0.449-1.043c2.11-0.75,3.91-1.445,5.399-2.083c1.557-0.667,3.323-1.5,5.3-2.5l0.445,1.044
		c-0.306,0.229-0.541,0.398-0.703,0.51c-1.445,0.925-2.228,1.524-2.345,1.799c-0.117,0.273-0.06,0.716,0.177,1.326
		c0.618,1.631,1.878,4.663,3.776,9.094c1.267,2.959,2.203,4.936,2.806,5.933c0.604,0.997,1.356,1.75,2.26,2.254
		c0.902,0.505,1.949,0.745,3.139,0.716s2.359-0.289,3.507-0.779c1.732-0.743,2.975-1.728,3.723-2.955
		c0.748-1.227,1.021-2.556,0.822-3.983c-0.202-1.427-1.098-4.002-2.692-7.728c-2.111-4.926-3.394-7.815-3.849-8.666
		c-0.201-0.375-0.423-0.604-0.667-0.688c-0.245-0.083-1.181,0.022-2.806,0.314c-0.168,0.029-0.432,0.073-0.787,0.128l-0.448-1.043
		c2.22-0.797,3.893-1.438,5.018-1.92c1.271-0.544,2.689-1.228,4.255-2.053l0.448,1.043c-0.268,0.226-0.47,0.39-0.61,0.491
		c-1.326,0.944-2.047,1.547-2.17,1.808c-0.121,0.262-0.112,0.621,0.031,1.075c0.279,0.982,1.383,3.759,3.313,8.331
		c1.499,3.529,2.396,5.794,2.697,6.796c0.42,1.383,0.618,2.557,0.587,3.524c-0.032,0.968-0.279,1.982-0.746,3.04
		c-0.47,1.059-1.13,1.975-1.989,2.745c-1.133,1.016-2.423,1.834-3.87,2.454c-1.612,0.689-3.141,1.093-4.586,1.211
		c-1.445,0.116-2.671-0.038-3.678-0.465c-1.006-0.427-1.892-1.059-2.655-1.897c-0.763-0.836-1.546-2.193-2.35-4.067l-3.372-8.053
		c-1.276-2.983-2.007-4.656-2.192-5.025c-0.291-0.559-0.541-0.912-0.748-1.06c-0.158-0.127-0.343-0.195-0.556-0.201
		c-0.162-0.015-1.008,0.131-2.537,0.437C234.399,73.463,234.098,73.507,233.69,73.558z"/>
</g>
<g>
	<path fill-rule="evenodd" clip-rule="evenodd" d="M511.851,107.143l5.618,5.498l-1.487,25.654l11.003-10.085
		c1.176-1.077,1.761-1.891,1.758-2.441c0.009-0.738-0.401-1.515-1.232-2.33l-0.734-0.718l0.517-0.474l7.353,7.191l-0.517,0.475
		l-0.749-0.734c-0.896-0.875-1.774-1.273-2.64-1.19c-0.529,0.051-1.328,0.566-2.396,1.549l-16.059,14.719l-0.557-0.542l1.578-27.543
		l-11.737,10.761c-1.172,1.075-1.761,1.882-1.772,2.426c-0.002,0.748,0.413,1.524,1.234,2.329l0.749,0.733l-0.518,0.474
		l-7.351-7.192l0.517-0.476l0.734,0.72c0.902,0.886,1.79,1.288,2.652,1.207c0.528-0.053,1.33-0.567,2.398-1.548l13.248-12.146
		c0.044-1.186,0.009-2.026-0.097-2.523c-0.11-0.494-0.376-1.12-0.804-1.876c-0.214-0.369-0.623-0.848-1.23-1.442L511.851,107.143z"
		/>
	<path fill-rule="evenodd" clip-rule="evenodd" d="M560.937,165.408l-8.234,5.469l3.518,5.17c0.909,1.337,1.696,2.111,2.358,2.324
		c0.876,0.288,1.931,0.074,3.163-0.645l0.436,0.637l-7.263,4.823l-0.433-0.639c0.908-0.834,1.451-1.431,1.628-1.784
		c0.218-0.446,0.267-0.973,0.152-1.581c-0.117-0.609-0.509-1.404-1.176-2.383l-3.515-5.169l-6.871,4.564
		c-0.923,0.613-1.454,1.033-1.591,1.257c-0.134,0.224-0.185,0.491-0.146,0.799c0.039,0.308,0.276,0.787,0.717,1.431l2.701,3.971
		c0.899,1.325,1.638,2.232,2.208,2.721c0.571,0.489,1.285,0.853,2.143,1.084c1.116,0.293,2.575,0.388,4.363,0.287l0.481,0.708
		l-6.592,1.442l-12.308-18.088l0.565-0.376l0.568,0.833c0.378,0.555,0.854,1.003,1.426,1.342c0.417,0.261,0.835,0.348,1.253,0.264
		c0.418-0.085,1.138-0.467,2.153-1.141l13.548-8.998c1.316-0.875,2.026-1.564,2.13-2.068c0.126-0.688-0.146-1.516-0.807-2.487
		l-0.563-0.833l0.565-0.374l12.306,18.091l-4.416,3.296l-0.458-0.672c0.938-0.977,1.519-1.75,1.729-2.317
		c0.216-0.571,0.234-1.213,0.061-1.933c-0.16-0.565-0.635-1.429-1.427-2.593L560.937,165.408z"/>
	<path fill-rule="evenodd" clip-rule="evenodd" d="M585.539,211.947l-0.701,0.253c-0.553-0.89-1.14-1.505-1.762-1.842
		c-0.912-0.473-2.128-0.748-3.642-0.823l-25.801-1.405l-0.295-0.732l18.239-18.099c0.945-0.931,1.504-1.55,1.673-1.852
		c0.263-0.474,0.411-0.993,0.439-1.556c0.031-0.563-0.089-1.266-0.356-2.108l0.702-0.253l4.439,10.972l-0.701,0.254
		c-0.617-1.201-1.145-1.933-1.589-2.198c-0.442-0.266-0.896-0.315-1.351-0.148c-0.636,0.228-1.504,0.891-2.608,1.984l-12.402,12.305
		l17.553,0.954c1.726,0.089,2.879,0.032,3.449-0.175c0.368-0.132,0.645-0.452,0.825-0.958c0.183-0.504,0.159-1.237-0.071-2.199
		c-0.014-0.07-0.037-0.189-0.078-0.357l0.703-0.252L585.539,211.947z"/>
	<path fill-rule="evenodd" clip-rule="evenodd" d="M592.99,230.661c0.809,3.357,0.201,6.55-1.828,9.581
		c-2.028,3.031-5.006,4.975-8.934,5.828c-4.045,0.881-7.697,0.371-10.966-1.526c-3.27-1.899-5.328-4.608-6.18-8.13
		c-0.859-3.56-0.281-6.833,1.738-9.821c2.017-2.988,5.092-4.934,9.228-5.834c4.226-0.918,8.013-0.271,11.358,1.945
		C590.313,224.626,592.171,227.279,592.99,230.661z M591.493,230.607c-0.556-2.313-1.89-3.974-3.993-4.986
		c-2.62-1.261-6.054-1.43-10.294-0.506c-4.347,0.945-7.474,2.575-9.382,4.888c-1.447,1.772-1.895,3.794-1.346,6.066
		c0.584,2.426,2.045,4.215,4.381,5.372c2.329,1.157,5.599,1.278,9.806,0.363c4.553-0.991,7.741-2.601,9.559-4.828
		C591.664,235.192,592.091,233.069,591.493,230.607z"/>
	<path fill-rule="evenodd" clip-rule="evenodd" d="M582.759,286.67l-0.078,0.694l-7.4-1.678l-1.863-21.802l0.722-0.074l0.091,1.056
		c0.099,1.189,0.534,1.998,1.304,2.434c0.439,0.248,1.413,0.293,2.916,0.139l17.184-1.772c1.651-0.169,2.668-0.471,3.052-0.898
		c0.528-0.598,0.746-1.427,0.655-2.492l-0.089-1.054l0.72-0.076l1.093,12.749l-0.726,0.075c-0.112-1.498-0.331-2.533-0.653-3.109
		c-0.32-0.574-0.698-0.951-1.129-1.131c-0.432-0.179-1.426-0.187-2.985-0.026l-16.741,1.726c-1.084,0.112-1.821,0.301-2.209,0.564
		c-0.262,0.195-0.445,0.473-0.543,0.83c-0.101,0.362-0.075,1.45,0.08,3.265l0.175,2.06c0.187,2.16,0.465,3.665,0.841,4.507
		c0.372,0.843,0.97,1.585,1.798,2.226C579.794,285.525,581.054,286.122,582.759,286.67z"/>
	<path fill-rule="evenodd" clip-rule="evenodd" d="M602.525,299.361l-10.501,0.171l-0.166,6.256
		c-0.039,1.618,0.161,2.694,0.603,3.231c0.578,0.717,1.625,1.105,3.133,1.164l-0.02,0.772l-9.258,0.146l0.019-0.769
		c1.3-0.217,2.136-0.427,2.509-0.629c0.465-0.259,0.835-0.676,1.114-1.251c0.274-0.575,0.427-1.457,0.462-2.646l0.158-6.256
		l-8.762,0.144c-1.178,0.018-1.894,0.087-2.152,0.203c-0.258,0.114-0.467,0.313-0.623,0.597c-0.156,0.278-0.248,0.808-0.265,1.589
		l-0.126,4.807c-0.042,1.604,0.036,2.767,0.225,3.485c0.192,0.723,0.582,1.412,1.179,2.072c0.787,0.853,1.985,1.717,3.596,2.595
		l-0.021,0.858l-6.594-2.34l0.568-21.897l0.721-0.008l-0.026,1.006c-0.017,0.669,0.116,1.305,0.4,1.901
		c0.2,0.445,0.507,0.744,0.923,0.896c0.414,0.155,1.269,0.224,2.566,0.203l17.274-0.279c1.68-0.029,2.72-0.228,3.123-0.598
		c0.532-0.509,0.817-1.355,0.847-2.53l0.023-1.006l0.725-0.011l-0.569,21.898l-5.86,0.393l0.023-0.812
		c1.418-0.314,2.393-0.656,2.929-1.021c0.536-0.366,0.954-0.896,1.248-1.599c0.212-0.563,0.338-1.546,0.373-2.956L602.525,299.361z"
		/>
	<path fill-rule="evenodd" clip-rule="evenodd" d="M601.149,337.781c-0.824,3.641-2.848,6.598-6.076,8.868
		c-3.229,2.269-6.808,3.106-10.741,2.511c-4.047-0.617-7.105-2.47-9.171-5.566c-2.065-3.1-2.671-6.558-1.806-10.381
		c0.869-3.867,2.903-6.911,6.101-9.146c3.203-2.231,6.87-3.03,11.01-2.402c4.232,0.642,7.343,2.687,9.334,6.129
		C601.525,330.779,601.975,334.107,601.149,337.781z M599.827,337.172c0.567-2.509,0.134-4.657-1.292-6.438
		c-1.781-2.226-4.792-3.658-9.038-4.303c-4.354-0.662-7.925-0.193-10.712,1.407c-2.12,1.233-3.462,3.083-4.018,5.548
		c-0.59,2.633-0.104,4.954,1.462,6.967c1.568,2.015,4.456,3.339,8.666,3.979c4.561,0.692,8.174,0.266,10.845-1.279
		C597.861,341.804,599.225,339.847,599.827,337.172z"/>
	<path fill-rule="evenodd" clip-rule="evenodd" d="M597.344,355.01l-2.029,7.503l-23.932,13.387l14.837,2.858
		c1.582,0.309,2.623,0.304,3.119-0.009c0.669-0.412,1.156-1.172,1.457-2.284l0.267-0.979l0.696,0.134l-2.656,9.811l-0.7-0.134
		l0.27-0.997c0.326-1.195,0.227-2.107-0.295-2.732c-0.322-0.384-1.209-0.716-2.646-0.995l-21.651-4.175l0.202-0.74l25.675-14.386
		l-15.825-3.052c-1.582-0.306-2.619-0.31-3.114-0.01c-0.673,0.426-1.158,1.187-1.456,2.284l-0.273,1.002l-0.694-0.138l2.655-9.81
		l0.699,0.133l-0.266,0.981c-0.327,1.209-0.231,2.125,0.291,2.754c0.323,0.38,1.206,0.713,2.649,0.989l17.862,3.444
		c1.093-0.64,1.832-1.14,2.226-1.506c0.391-0.365,0.815-0.927,1.274-1.693c0.221-0.371,0.444-0.964,0.662-1.774L597.344,355.01z"/>
	<path d="M538.248,132.797l0.929-0.653c1.166,1.911,2.215,3.53,3.145,4.857c0.973,1.387,2.148,2.947,3.533,4.676l-0.932,0.65
		c-0.286-0.253-0.5-0.448-0.644-0.584c-1.201-1.225-1.948-1.867-2.24-1.925c-0.292-0.059-0.713,0.087-1.262,0.444
		c-1.471,0.939-4.18,2.793-8.129,5.559c-2.637,1.846-4.38,3.167-5.232,3.961c-0.853,0.795-1.435,1.686-1.744,2.673
		c-0.31,0.986-0.329,2.062-0.058,3.22c0.271,1.158,0.765,2.248,1.48,3.272c1.082,1.543,2.3,2.558,3.655,3.039
		c1.354,0.481,2.711,0.476,4.067-0.011c1.354-0.489,3.692-1.894,7.013-4.217c4.389-3.075,6.954-4.923,7.693-5.542
		c0.326-0.274,0.505-0.539,0.537-0.795c0.031-0.256-0.264-1.15-0.883-2.683c-0.063-0.159-0.16-0.408-0.286-0.744l0.93-0.652
		c1.235,2.011,2.205,3.516,2.907,4.52c0.793,1.131,1.752,2.379,2.881,3.744l-0.93,0.653c-0.275-0.216-0.479-0.381-0.606-0.498
		c-1.195-1.104-1.934-1.687-2.213-1.754c-0.282-0.064-0.631,0.019-1.046,0.251c-0.905,0.475-3.396,2.124-7.477,4.948
		c-3.146,2.191-5.181,3.532-6.099,4.032c-1.268,0.694-2.376,1.13-3.33,1.297c-0.954,0.168-1.997,0.132-3.128-0.108
		c-1.132-0.242-2.164-0.703-3.094-1.384c-1.227-0.903-2.291-1.997-3.194-3.287c-1.005-1.436-1.713-2.85-2.125-4.241
		c-0.41-1.391-0.51-2.623-0.298-3.695c0.212-1.072,0.648-2.069,1.313-2.987c0.663-0.919,1.83-1.963,3.5-3.133l7.192-4.95
		c2.658-1.86,4.146-2.918,4.47-3.175c0.487-0.398,0.781-0.715,0.884-0.95c0.092-0.181,0.121-0.375,0.083-0.584
		c-0.019-0.162-0.335-0.96-0.946-2.394C538.486,133.471,538.381,133.185,538.248,132.797z"/>
</g>
<g>
	<path d="M105.415,385.237l-1.041,0.316c-0.501-2.126-0.981-3.946-1.439-5.46c-0.479-1.582-1.094-3.386-1.848-5.411l1.042-0.313
		c0.187,0.322,0.325,0.568,0.416,0.737c0.736,1.503,1.229,2.328,1.479,2.473s0.677,0.139,1.283-0.021
		c1.62-0.414,4.64-1.292,9.061-2.628c2.952-0.892,4.934-1.574,5.946-2.046c1.013-0.471,1.807-1.114,2.38-1.932
		c0.574-0.815,0.909-1.802,1.002-2.956c0.094-1.154-0.036-2.315-0.388-3.482c-0.533-1.76-1.346-3.073-2.442-3.936
		c-1.094-0.862-2.334-1.276-3.716-1.245c-1.382,0.033-3.931,0.61-7.647,1.732c-4.915,1.486-7.801,2.402-8.659,2.747
		c-0.378,0.151-0.619,0.341-0.724,0.567c-0.104,0.228-0.099,1.146,0.014,2.751c0.011,0.167,0.026,0.427,0.042,0.776l-1.04,0.315
		c-0.536-2.238-0.977-3.93-1.322-5.073c-0.39-1.291-0.899-2.74-1.527-4.35l1.041-0.315c0.188,0.284,0.325,0.499,0.407,0.646
		c0.767,1.39,1.269,2.156,1.505,2.305c0.238,0.147,0.581,0.179,1.029,0.092c0.965-0.159,3.727-0.914,8.285-2.266
		c3.519-1.052,5.772-1.665,6.758-1.843c1.362-0.251,2.502-0.31,3.423-0.171c0.921,0.14,1.862,0.494,2.824,1.065
		c0.962,0.573,1.769,1.316,2.418,2.234c0.854,1.212,1.503,2.552,1.947,4.021c0.495,1.638,0.725,3.163,0.69,4.575
		c-0.036,1.412-0.308,2.581-0.817,3.507c-0.51,0.926-1.203,1.711-2.08,2.354c-0.876,0.645-2.25,1.249-4.119,1.814l-8.027,2.354
		c-2.976,0.898-4.647,1.417-5.018,1.554c-0.562,0.218-0.925,0.42-1.087,0.604c-0.137,0.139-0.22,0.31-0.248,0.515
		c-0.03,0.155,0.023,0.99,0.16,2.504C105.396,384.54,105.408,384.837,105.415,385.237z"/>
	<path fill-rule="evenodd" clip-rule="evenodd" d="M97.029,355.221l-1.337-7.424l14.795-20.288l-13.722,2.58
		c-1.463,0.276-2.34,0.637-2.634,1.093c-0.4,0.6-0.501,1.451-0.303,2.55l0.175,0.968l-0.646,0.125l-1.748-9.713l0.646-0.122
		l0.177,0.991c0.214,1.182,0.668,1.963,1.366,2.344c0.429,0.23,1.311,0.223,2.646-0.028l20.024-3.764l0.13,0.734l-15.866,21.787
		l14.635-2.751c1.463-0.274,2.342-0.636,2.638-1.074c0.398-0.611,0.5-1.467,0.304-2.55l-0.178-0.992l0.646-0.119l1.747,9.711
		l-0.644,0.124l-0.174-0.974c-0.216-1.195-0.673-1.982-1.371-2.364c-0.429-0.232-1.312-0.221-2.644,0.028l-16.522,3.106
		c-0.663,0.953-1.084,1.659-1.268,2.12c-0.182,0.465-0.314,1.118-0.392,1.961c-0.033,0.412,0.021,1.018,0.166,1.819L97.029,355.221z
		"/>
	<path fill-rule="evenodd" clip-rule="evenodd" d="M114.278,306.01l0.654-0.042l0.69,12.014l-0.655,0.041l-0.058-0.991
		c-0.067-1.162-0.405-1.985-1.015-2.477c-0.398-0.306-1.316-0.415-2.759-0.326l-15.6,0.976c-1.218,0.076-2.018,0.217-2.398,0.42
		c-0.288,0.158-0.524,0.453-0.713,0.897c-0.248,0.625-0.355,1.269-0.315,1.931l0.056,0.996l-0.653,0.041l-0.69-12.017l0.655-0.041
		l0.058,1.01c0.065,1.14,0.401,1.954,1.011,2.44c0.398,0.32,1.318,0.436,2.76,0.347l15.602-0.978
		c1.217-0.074,2.016-0.214,2.395-0.419c0.289-0.154,0.526-0.46,0.712-0.913c0.251-0.607,0.356-1.24,0.319-1.9L114.278,306.01z"/>
	<path fill-rule="evenodd" clip-rule="evenodd" d="M91.685,272.95l0.656,0.027c0.109,1.001,0.35,1.764,0.719,2.29
		c0.552,0.757,1.417,1.444,2.598,2.063l20.053,10.641l-0.035,0.764l-21.262,9.591c-1.098,0.492-1.772,0.843-2.021,1.05
		c-0.385,0.329-0.695,0.741-0.928,1.236c-0.231,0.495-0.397,1.168-0.496,2.02l-0.655-0.029l0.53-11.448l0.655,0.028
		c0.047,1.301,0.196,2.15,0.451,2.547c0.255,0.398,0.594,0.606,1.022,0.625c0.591,0.026,1.53-0.251,2.815-0.83l14.455-6.521
		l-13.641-7.237c-1.345-0.708-2.283-1.075-2.815-1.099c-0.344-0.015-0.682,0.172-1.015,0.558c-0.332,0.388-0.585,1.052-0.76,1.999
		c-0.015,0.067-0.037,0.184-0.069,0.349l-0.655-0.029L91.685,272.95z"/>
	<path fill-rule="evenodd" clip-rule="evenodd" d="M95.026,259.483l9.379,1.755l1.133-6.086c0.292-1.575,0.286-2.664-0.023-3.27
		c-0.403-0.806-1.272-1.375-2.607-1.709l0.141-0.75l8.269,1.548l-0.14,0.75c-1.194-0.027-1.971,0.024-2.335,0.153
		c-0.454,0.167-0.85,0.507-1.187,1.019c-0.338,0.515-0.615,1.346-0.83,2.5l-1.134,6.087l7.827,1.464
		c1.05,0.197,1.7,0.261,1.948,0.197c0.248-0.066,0.463-0.223,0.649-0.468c0.184-0.246,0.347-0.749,0.488-1.507l0.872-4.677
		c0.289-1.559,0.408-2.708,0.352-3.449c-0.056-0.739-0.297-1.487-0.724-2.24c-0.566-0.975-1.496-2.041-2.79-3.194l0.156-0.834
		l5.499,3.495l-3.967,21.298l-0.643-0.123l0.182-0.98c0.121-0.651,0.103-1.296-0.058-1.931c-0.105-0.47-0.331-0.819-0.676-1.047
		c-0.346-0.225-1.098-0.447-2.255-0.665l-15.429-2.886c-1.499-0.28-2.458-0.277-2.872,0.013c-0.559,0.402-0.942,1.176-1.154,2.317
		l-0.183,0.981l-0.644-0.121l3.966-21.304l5.28,0.687l-0.146,0.791c-1.313,0.05-2.237,0.204-2.772,0.462
		c-0.536,0.258-0.991,0.703-1.363,1.335c-0.278,0.509-0.545,1.449-0.8,2.82L95.026,259.483z"/>
	<path fill-rule="evenodd" clip-rule="evenodd" d="M129.329,218.682l-2.259,7.178l-13.623,5.675c-0.184,0.663-0.34,1.199-0.468,1.61
		c-0.054,0.167-0.112,0.347-0.179,0.538c-0.067,0.19-0.137,0.386-0.212,0.588l6.697,2.137c1.444,0.46,2.399,0.563,2.866,0.306
		c0.652-0.341,1.137-1.01,1.45-2.009l0.329-1.044l0.625,0.2l-3.614,11.484l-0.624-0.199l0.317-1.005
		c0.355-1.13,0.292-2.039-0.186-2.726c-0.264-0.387-1.05-0.79-2.358-1.207l-14.89-4.747c-1.444-0.46-2.398-0.562-2.864-0.307
		c-0.658,0.354-1.146,1.037-1.463,2.049l-0.317,1.004l-0.624-0.2l3.071-9.761c0.895-2.847,1.734-4.887,2.515-6.124
		s1.798-2.174,3.051-2.81c1.253-0.639,2.542-0.745,3.865-0.323c1.416,0.453,2.474,1.381,3.177,2.787s0.916,3.306,0.636,5.696
		l8.333-3.448c1.917-0.778,3.269-1.542,4.053-2.293c0.786-0.748,1.476-1.832,2.072-3.249L129.329,218.682z M111.511,233.928
		c0.079-0.249,0.149-0.461,0.211-0.642c0.063-0.181,0.113-0.329,0.15-0.446c0.795-2.529,0.92-4.584,0.374-6.171
		c-0.545-1.585-1.556-2.615-3.024-3.082c-1.437-0.458-2.768-0.313-3.994,0.437c-1.224,0.747-2.105,1.976-2.642,3.683
		c-0.239,0.754-0.456,1.811-0.653,3.167L111.511,233.928z"/>
	<path fill-rule="evenodd" clip-rule="evenodd" d="M115.229,190.221l7.58,3.497l-0.316,0.695c-1.556-0.445-2.899-0.573-4.027-0.385
		c-1.128,0.187-2.189,0.707-3.188,1.556c-0.996,0.849-1.757,1.852-2.281,3.01c-0.594,1.31-0.743,2.549-0.446,3.723
		c0.297,1.172,0.883,1.96,1.755,2.363c0.671,0.309,1.401,0.319,2.197,0.031c1.163-0.407,3.083-1.766,5.762-4.078
		c2.185-1.883,3.769-3.127,4.752-3.73c0.985-0.603,1.981-0.956,2.994-1.059s1.955,0.047,2.827,0.449
		c1.662,0.766,2.752,2.176,3.271,4.236c0.523,2.057,0.249,4.268-0.824,6.633c-0.336,0.741-0.701,1.417-1.096,2.025
		c-0.231,0.365-0.795,1.081-1.695,2.148c-0.899,1.068-1.423,1.767-1.571,2.093c-0.142,0.314-0.173,0.6-0.093,0.858
		c0.081,0.258,0.357,0.548,0.83,0.873l-0.316,0.694l-7.512-3.466l0.314-0.695c1.722,0.399,3.099,0.503,4.131,0.309
		c1.032-0.192,2.065-0.739,3.097-1.639c1.033-0.899,1.859-2.028,2.475-3.385c0.712-1.572,0.917-2.979,0.616-4.22
		c-0.3-1.243-0.938-2.087-1.912-2.537c-0.54-0.249-1.166-0.329-1.873-0.239c-0.709,0.09-1.465,0.389-2.271,0.896
		c-0.545,0.34-1.839,1.364-3.881,3.076c-2.04,1.711-3.583,2.885-4.63,3.525c-1.045,0.638-2.055,1.022-3.025,1.156
		c-0.972,0.13-1.91-0.014-2.816-0.43c-1.574-0.727-2.61-2.057-3.107-3.993c-0.498-1.936-0.252-3.993,0.735-6.171
		c0.615-1.361,1.555-2.671,2.815-3.932c0.589-0.582,0.949-1.017,1.079-1.308c0.149-0.327,0.188-0.632,0.115-0.918
		c-0.071-0.285-0.332-0.606-0.78-0.965L115.229,190.221z"/>
	<path fill-rule="evenodd" clip-rule="evenodd" d="M145.981,184.647l0.565,0.337l-6.072,10.377l-0.563-0.336l0.501-0.858
		c0.586-1.003,0.761-1.877,0.529-2.631c-0.16-0.481-0.859-1.091-2.102-1.833l-13.441-8.021c-1.047-0.625-1.786-0.96-2.213-1.006
		c-0.325-0.031-0.686,0.083-1.086,0.342c-0.552,0.378-0.995,0.855-1.33,1.427l-0.502,0.858l-0.564-0.336l6.07-10.377l0.563,0.336
		l-0.509,0.872c-0.578,0.985-0.748,1.852-0.512,2.601c0.153,0.492,0.85,1.107,2.093,1.85l13.439,8.019
		c1.05,0.627,1.788,0.963,2.213,1.008c0.325,0.034,0.69-0.085,1.095-0.355c0.542-0.366,0.982-0.833,1.315-1.403L145.981,184.647z"/>
	<path fill-rule="evenodd" clip-rule="evenodd" d="M147.568,182.812l-0.53-0.384l0.605-0.859c0.682-0.964,0.902-1.839,0.659-2.625
		c-0.143-0.476-0.767-1.114-1.874-1.914l-12.693-9.177c-1.221-0.883-2.099-1.279-2.628-1.188c-0.732,0.132-1.406,0.629-2.017,1.493
		l-0.606,0.858l-0.532-0.385l6.585-9.306c2.418-3.417,4.588-5.776,6.516-7.077c1.926-1.3,4.05-1.931,6.37-1.893
		c2.319,0.037,4.498,0.792,6.532,2.262c2.729,1.975,4.327,4.59,4.791,7.847c0.51,3.648-0.806,7.692-3.947,12.132L147.568,182.812z
		 M150.746,175.246c1.278-1.229,2.26-2.326,2.942-3.292c1.84-2.602,2.585-5.33,2.228-8.182c-0.355-2.851-1.878-5.249-4.566-7.191
		c-2.707-1.958-5.448-2.642-8.223-2.055c-2.776,0.588-5.115,2.228-7.021,4.921c-0.715,1.009-1.39,2.259-2.023,3.752L150.746,175.246
		z"/>
	<path fill-rule="evenodd" clip-rule="evenodd" d="M173.85,137.977l-7.694,7.633l1.312,4.046c0.324,1.006,0.648,1.676,0.971,2.009
		c0.257,0.266,0.626,0.356,1.109,0.272s1.229-0.571,2.246-1.46l0.457,0.473l-6.268,6.218l-0.457-0.475
		c0.705-0.951,1.079-1.649,1.123-2.096c0.1-0.906-0.158-2.288-0.772-4.146l-6.896-21.272l0.493-0.49l20.945,7.642
		c1.683,0.614,2.919,0.868,3.708,0.764c0.791-0.104,1.609-0.536,2.46-1.296l0.459,0.474l-7.83,7.767l-0.458-0.472
		c0.757-0.819,1.179-1.463,1.266-1.937c0.087-0.474-0.006-0.852-0.281-1.135c-0.365-0.376-1.136-0.78-2.315-1.206L173.85,137.977z
		 M172.486,137.476l-10.155-3.714l3.369,10.443L172.486,137.476z"/>
	<path fill-rule="evenodd" clip-rule="evenodd" d="M188.773,134.562l-0.388-0.534l0.838-0.626c0.943-0.704,1.418-1.469,1.427-2.295
		c0.01-0.497-0.387-1.3-1.195-2.406l-9.255-12.709c-0.891-1.224-1.602-1.874-2.133-1.955c-0.737-0.102-1.526,0.162-2.371,0.792
		l-0.838,0.628l-0.389-0.535l9.097-6.802c3.34-2.497,6.123-4.063,8.351-4.7c2.228-0.635,4.436-0.573,6.628,0.189
		c2.192,0.761,4.031,2.161,5.516,4.2c1.989,2.732,2.709,5.723,2.153,8.971c-0.629,3.631-3.112,7.07-7.455,10.315L188.773,134.562z
		 M194.102,128.351c1.588-0.772,2.855-1.51,3.799-2.215c2.543-1.903,4.083-4.267,4.615-7.093c0.533-2.828-0.181-5.586-2.141-8.278
		c-1.973-2.71-4.369-4.22-7.185-4.527c-2.815-0.309-5.539,0.52-8.171,2.488c-0.986,0.739-2.008,1.721-3.065,2.942L194.102,128.351z"
		/>
</g>
<path fill="#010101" d="M493.771,97.494c-1.133-2.141-3.344-4.654-6.639-7.542l-8.971-7.868l-0.469,0.507l0.827,0.725
	c0.834,0.73,1.273,1.481,1.322,2.254c0.032,0.56-0.49,1.421-1.566,2.584l-11.181,12.093c-0.974,1.054-1.72,1.627-2.237,1.721
	c-0.854,0.164-1.748-0.163-2.678-0.978l-0.825-0.725l-0.471,0.507l9.851,8.637c4.278,3.754,8.365,5.574,12.256,5.458
	c3.478-0.111,6.417-1.466,8.823-4.066c1.791-1.939,2.848-4.106,3.17-6.504C495.306,101.902,494.9,99.634,493.771,97.494z
	 M487.97,107.657c-2.368,2.561-5.07,3.864-8.108,3.908c-3.038,0.046-5.811-1.032-8.319-3.231c-0.931-0.816-1.963-1.956-3.098-3.416
	l8.457-9.15l4.601,4.001l-0.999,1.122l0.615,0.52l2.182-2.45l-0.616-0.521l-0.647,0.729l-4.589-3.991l5.673-6.137
	c1.49,0.825,2.721,1.664,3.692,2.517c2.595,2.276,4.034,4.883,4.314,7.821C491.407,102.317,490.355,105.077,487.97,107.657z"/>
<path fill="#010101" d="M355.544,535.404c-2.271-0.84-5.595-1.238-9.977-1.193l-11.931,0.121l-0.011,0.691l1.1-0.012
	c1.109-0.013,1.937,0.254,2.489,0.797c0.398,0.396,0.582,1.386,0.556,2.971l-0.266,16.468c-0.023,1.435-0.196,2.359-0.52,2.774
	c-0.527,0.691-1.411,1.044-2.648,1.057l-1.098,0.01l-0.012,0.692l13.1-0.134c5.691-0.056,9.951-1.425,12.773-4.105
	c2.517-2.402,3.803-5.373,3.863-8.915c0.041-2.64-0.618-4.959-1.976-6.96C359.628,537.665,357.813,536.246,355.544,535.404z
	 M358,546.846c-0.057,3.487-1.201,6.261-3.436,8.319c-2.233,2.062-5.018,3.106-8.354,3.142c-1.238,0.012-2.767-0.148-4.586-0.48
	l0.199-12.458l6.097-0.086l0.003,1.501l0.806-0.022l-0.009-3.28l-0.806,0.023l0.004,0.975l-6.08,0.088l0.134-8.356
	c1.66-0.38,3.137-0.574,4.43-0.587c3.451-0.034,6.263,0.948,8.431,2.95S358.058,543.333,358,546.846z"/>
<g>
	<path d="M157.51,434.729l1.104-0.852c2.268,3.165,3.963,5.476,5.087,6.933c2.963,3.841,5.605,7.153,7.927,9.935
		c-2.164,1.76-4.026,3.396-5.586,4.91l-0.88-1.142l0.355-0.495c1.05-1.434,1.709-2.512,1.976-3.234
		c0.102-0.301,0.099-0.617-0.006-0.949c-0.106-0.334-0.456-0.886-1.05-1.654l-4.112-5.331l-7.203,5.558l1.869,2.42
		c0.723,0.938,1.225,1.488,1.506,1.646c0.283,0.16,0.601,0.213,0.957,0.161c0.552-0.086,1.551-0.478,2.995-1.177l0.891,1.155
		c-1.597,1.054-3.076,2.106-4.439,3.157c-1.242,0.959-2.437,1.97-3.584,3.033l-0.891-1.156c1.225-1.434,1.936-2.321,2.13-2.664
		c0.13-0.263,0.165-0.527,0.104-0.791c-0.084-0.336-0.509-0.999-1.275-1.992l-1.932-2.506l-6.681,5.155
		c-0.806,0.621-1.274,1.053-1.404,1.294c-0.131,0.242-0.159,0.504-0.083,0.786c0.105,0.466,0.532,1.337,1.277,2.611
		c0.105,0.156,0.243,0.397,0.416,0.723l-1.104,0.852c-1.659-2.375-3.09-4.343-4.292-5.901c-1.202-1.559-2.578-3.229-4.126-5.01
		l1.104-0.852c1.529,1.365,2.464,2.084,2.804,2.155c0.34,0.07,0.762-0.06,1.269-0.391c0.375-0.254,3.109-2.333,8.201-6.237
		l4.027-3.107l1.223-0.943c1.481-1.143,2.33-1.853,2.544-2.129c0.214-0.276,0.312-0.541,0.293-0.792
		c-0.026-0.32-0.386-1.167-1.081-2.542C157.762,435.229,157.653,435.018,157.51,434.729z"/>
	<path d="M161.098,480.652l1.019-0.908c1.146,0.877,1.858,1.341,2.135,1.391c0.276,0.052,0.525-0.021,0.746-0.219
		c0.128-0.114,0.252-0.271,0.371-0.473c0.261-0.483,1.015-1.973,2.261-4.464c-1.071-1.255-1.974-2.292-2.706-3.112
		c-0.6-0.671-1.614-1.78-3.044-3.326c-3.284,1.171-5.042,1.86-5.271,2.065c-0.221,0.197-0.322,0.413-0.302,0.646
		c0.019,0.234,0.41,1.001,1.173,2.299l-1.018,0.909c-0.882-1.191-1.772-2.289-2.67-3.295c-0.968-1.083-2.001-2.14-3.102-3.169
		l1.018-0.908c0.876,0.632,1.558,0.997,2.045,1.096c0.327,0.069,0.71,0.057,1.153-0.04c0.882-0.175,4.03-1.152,9.443-2.934
		c3.426-1.124,8.446-2.846,15.061-5.164l0.937,1.05c-1.429,2.737-3.945,8.009-7.55,15.816c-2.007,4.337-3.112,6.848-3.311,7.528
		c-0.141,0.471-0.19,0.861-0.147,1.168s0.383,1.096,1.021,2.364l-1.019,0.909c-1.28-1.637-2.514-3.12-3.701-4.448
		C164.469,484.123,162.956,482.529,161.098,480.652z M172.857,465.647l-8.868,3.102l2.305,2.609
		c0.555,0.621,1.356,1.509,2.404,2.664L172.857,465.647z"/>
	<path d="M190.887,502.497l-0.75,1.838c-2.387-0.612-4.364-1.376-5.93-2.29c-1.566-0.914-2.964-2.079-4.193-3.495
		c-2.596-2.991-3.744-6.118-3.442-9.383c0.3-3.263,1.964-6.208,4.991-8.835c3.212-2.787,6.635-4.066,10.268-3.836
		c3.633,0.229,6.929,2.048,9.886,5.455c0.945,1.089,1.766,2.218,2.464,3.389c0.699,1.171,1.451,2.717,2.257,4.64
		c-0.649,0.471-1.299,0.988-1.949,1.552c-1.124,0.975-2.439,2.233-3.95,3.776l-1.267-1.46c1.398-1.989,2.189-3.188,2.374-3.596
		c0.412-0.932,0.535-1.981,0.368-3.147c-0.166-1.167-0.802-2.388-1.908-3.662c-1.682-1.938-3.602-2.895-5.759-2.868
		c-2.601,0.022-5.22,1.178-7.857,3.467c-2.729,2.368-4.255,4.806-4.578,7.313c-0.323,2.507,0.449,4.836,2.315,6.986
		C185.885,500.252,188.105,501.638,190.887,502.497z"/>
	<path d="M208.391,490.192l0.757-1.136c2.206,1.634,3.998,2.908,5.372,3.825c1.375,0.917,3.221,2.066,5.539,3.448l-0.757,1.137
		c-1.597-0.711-2.633-1.1-3.111-1.166c-0.302-0.053-0.556-0.01-0.764,0.133c-0.268,0.191-0.767,0.834-1.496,1.928l-5.236,7.855
		c-1.351,2.024-2.161,3.47-2.43,4.341c-0.369,1.144-0.357,2.265,0.033,3.367s1.295,2.127,2.718,3.076
		c1.567,1.044,2.973,1.498,4.218,1.361c1.245-0.138,2.347-0.678,3.305-1.62c0.958-0.941,2.324-2.742,4.097-5.401
		c0.41-0.614,1.522-2.368,3.34-5.263c1.001-1.608,1.545-2.583,1.631-2.924c0.051-0.202,0.033-0.398-0.052-0.589
		c-0.096-0.256-0.614-0.853-1.553-1.788c-0.106-0.116-0.27-0.283-0.489-0.502l0.757-1.137c1.982,1.484,3.402,2.513,4.26,3.084
		c1.014,0.677,2.378,1.505,4.091,2.483l-0.757,1.136c-1.673-0.701-2.685-1.044-3.034-1.026c-0.35,0.019-0.662,0.18-0.936,0.484
		c-0.47,0.514-2.263,3.078-5.381,7.692c-1.793,2.646-3.019,4.348-3.678,5.104c-0.922,1.024-1.804,1.771-2.642,2.238
		c-0.839,0.467-1.813,0.767-2.921,0.899c-1.109,0.133-2.184,0.051-3.226-0.243c-1.369-0.396-2.696-1.022-3.982-1.881
		c-2.173-1.448-3.677-2.928-4.513-4.438c-0.837-1.511-1.149-2.968-0.939-4.371c0.211-1.402,1.001-3.132,2.372-5.188l6.32-9.48
		c0.812-1.218,1.264-2.024,1.359-2.419c0.048-0.263-0.003-0.52-0.154-0.768C210.36,492.198,209.653,491.447,208.391,490.192z"/>
	<path d="M234.166,506.923l0.664-1.193c2.553,1.573,4.561,2.766,6.025,3.578c1.494,0.83,3.516,1.876,6.068,3.138l-0.663,1.194
		c-2.296-0.84-3.563-1.261-3.8-1.269c-0.409,0.014-0.823,0.396-1.24,1.146l-2.362,4.108l-7.449,13.411l5.608,3.114
		c0.924,0.515,1.576,0.792,1.956,0.834c0.523,0.051,1.111-0.052,1.764-0.308c0.653-0.255,1.949-0.969,3.891-2.142l1.386,0.771
		c-1.791,1.606-3.673,3.415-5.648,5.426c-4.288-2.536-7.877-4.607-10.766-6.211c-2.367-1.314-4.858-2.621-7.475-3.919l0.662-1.194
		c2.024,0.633,3.167,0.93,3.429,0.893c0.261-0.039,0.521-0.234,0.778-0.59c0.257-0.356,1.711-2.92,4.361-7.691l3.244-5.876
		l0.572-1.031c0.955-1.719,1.472-2.783,1.551-3.188c0.062-0.305,0.021-0.562-0.121-0.775
		C236.459,508.937,235.647,508.194,234.166,506.923z"/>
	<path d="M270.641,530.864l-1.451-0.754c0.479-2.674,0.718-4.205,0.715-4.596c-0.002-0.389-0.116-0.722-0.343-0.998
		c-0.225-0.276-1.118-0.821-2.677-1.632l-1.513-0.787l-7.944,15.28c-0.987,1.898-1.519,3.075-1.599,3.533
		c-0.045,0.239,0.022,0.484,0.201,0.736c0.179,0.255,1.011,0.96,2.495,2.119l-0.63,1.21c-3.108-1.769-5.115-2.888-6.02-3.357
		c-1.227-0.639-3.134-1.554-5.724-2.747l0.63-1.212c1.822,0.561,2.935,0.833,3.337,0.821c0.271-0.012,0.517-0.137,0.739-0.374
		s0.855-1.359,1.899-3.366l7.859-15.116l-2.62-1.362c-0.884-0.459-1.508-0.686-1.875-0.683c-0.365,0.005-0.746,0.159-1.143,0.466
		c-0.599,0.464-1.631,1.485-3.1,3.064l-1.418-0.738c1.01-1.511,1.695-2.562,2.054-3.151c0.359-0.588,1.023-1.753,1.995-3.492
		c4.055,2.261,8.053,4.401,11.995,6.423c3.344,1.697,5.76,2.892,7.25,3.582C272.669,525.845,271.632,528.221,270.641,530.864z"/>
	<path d="M279.736,552.122l0.374-1.313c1.438,0.128,2.287,0.139,2.548,0.032c0.261-0.104,0.433-0.299,0.514-0.583
		c0.047-0.166,0.067-0.365,0.06-0.598c-0.038-0.549-0.198-2.21-0.479-4.981c-1.576-0.487-2.893-0.881-3.95-1.182
		c-0.866-0.246-2.316-0.641-4.351-1.182c-2.148,2.746-3.265,4.268-3.35,4.563c-0.081,0.285-0.051,0.521,0.091,0.709
		s0.882,0.626,2.221,1.314l-0.374,1.313c-1.383-0.534-2.723-0.986-4.019-1.355c-1.397-0.397-2.836-0.737-4.316-1.018l0.374-1.313
		c1.078,0.065,1.85,0.009,2.314-0.168c0.313-0.115,0.63-0.332,0.953-0.65c0.652-0.619,2.789-3.13,6.41-7.53
		c2.293-2.782,5.614-6.923,9.962-12.419l1.353,0.385c0.257,3.076,0.951,8.877,2.082,17.402c0.625,4.738,1.035,7.45,1.23,8.132
		c0.133,0.474,0.3,0.829,0.501,1.065s0.91,0.72,2.127,1.45l-0.374,1.313c-1.958-0.698-3.793-1.291-5.506-1.779
		C284.441,553.25,282.309,552.714,279.736,552.122z M281.644,533.153l-5.833,7.364l3.344,0.972c0.801,0.228,1.952,0.55,3.456,0.965
		L281.644,533.153z"/>
	<path d="M296.77,530.252l0.171-1.354c2.692,0.478,4.921,0.828,6.689,1.053c1.348,0.17,3.219,0.37,5.611,0.6
		c1.74,0.159,3.191,0.311,4.354,0.458c2.186,0.277,3.881,0.789,5.085,1.537c1.666,1.028,2.896,2.441,3.689,4.24
		c0.794,1.798,1.022,4.026,0.686,6.685c-0.374,2.951-1.364,5.493-2.968,7.624c-1.605,2.133-3.681,3.694-6.228,4.685
		c-2.125,0.834-4.607,1.07-7.443,0.71c-0.268-0.033-1.344-0.21-3.229-0.528c-1.885-0.32-2.944-0.494-3.176-0.524
		c-0.814-0.103-2.933-0.298-6.358-0.582l0.172-1.354l0.754-0.052c1.565-0.087,2.495-0.235,2.789-0.446s0.494-0.551,0.601-1.021
		c0.136-0.702,0.628-4.399,1.477-11.094c0.623-4.916,0.928-7.688,0.914-8.322c-0.004-0.435-0.11-0.764-0.318-0.987
		c-0.208-0.226-1.061-0.581-2.558-1.067L296.77,530.252z M303.324,553.608c1.376,0.421,2.541,0.692,3.494,0.813
		c2.674,0.339,4.796-0.234,6.367-1.722c2.001-1.901,3.257-4.871,3.769-8.906c0.439-3.464,0.005-6.189-1.302-8.177
		c-1.059-1.62-2.913-2.6-5.564-2.936c-1.116-0.142-2.479-0.195-4.09-0.165c-0.357,1.888-0.863,5.411-1.517,10.569
		C304.105,546.05,303.72,549.557,303.324,553.608z"/>
</g>
<g>
	<path d="M370.585,533.333l-0.157-1.356c2.098-0.106,3.824-0.24,5.174-0.396c1.442-0.168,3-0.417,4.673-0.747
		c0.65,1.339,1.483,2.916,2.497,4.732c2.763,4.885,5.185,9.024,7.267,12.414l3.25-10.491c0.512-1.707,0.913-3.107,1.207-4.201
		c0.293-1.095,0.635-2.501,1.025-4.219c2.223-0.121,3.834-0.239,4.834-0.354c0.858-0.102,2.409-0.349,4.646-0.744l0.157,1.357
		c-0.339,0.114-0.595,0.193-0.765,0.238c-1.466,0.441-2.303,0.786-2.515,1.034c-0.213,0.247-0.311,0.721-0.295,1.42
		c0.017,0.697,0.308,3.474,0.869,8.329c0.713,6.167,1.091,9.382,1.136,9.649c0.146,0.961,0.28,1.548,0.405,1.757
		c0.124,0.208,0.267,0.353,0.429,0.434c0.435,0.197,1.313,0.325,2.634,0.382l0.801,0.075l0.158,1.356
		c-2.829,0.192-4.982,0.373-6.459,0.545c-1.521,0.175-3.764,0.504-6.725,0.982l-0.156-1.356c1.798-0.568,2.803-0.917,3.02-1.048
		c0.215-0.13,0.37-0.288,0.467-0.471c0.097-0.187,0.148-0.427,0.155-0.727c0.006-0.297-0.119-1.554-0.375-3.768
		c-0.533-4.809-0.956-8.564-1.27-11.269c-0.03-0.257-0.128-1.057-0.296-2.401c-0.479,1.469-2.19,7.17-5.137,17.105l-1.29,4.294
		l-1.345,0.156c-1.679-2.966-5.438-9.46-11.277-19.479c0.163,1.604,0.308,2.964,0.437,4.077c0.707,6.103,1.227,10.133,1.559,12.09
		c0.188,1.118,0.32,1.742,0.394,1.87c0.108,0.223,0.305,0.392,0.589,0.507c0.285,0.116,1.099,0.213,2.441,0.296
		c0.167,0.016,0.412,0.037,0.733,0.063l0.158,1.357c-1.669,0.057-3.271,0.175-4.808,0.353c-1.549,0.179-3.304,0.45-5.268,0.814
		l-0.158-1.358c1.481-0.456,2.377-0.764,2.689-0.925c0.312-0.159,0.533-0.39,0.664-0.69c0.129-0.299,0.15-0.836,0.061-1.606
		l-1.142-11.691c-0.189-2.048-0.342-3.568-0.457-4.559c-0.177-1.528-0.37-2.523-0.576-2.981c-0.128-0.284-0.332-0.483-0.612-0.599
		c-0.28-0.116-1.15-0.189-2.611-0.218C371.234,533.362,370.955,533.353,370.585,533.333z"/>
	<path d="M407.018,528.395l-0.38-1.294c2.75-0.671,5.716-1.473,8.9-2.409c3.69-1.085,7.475-2.269,11.354-3.548
		c0.751,2.432,1.517,4.513,2.293,6.244l-1.435,0.422c-0.244-0.331-0.423-0.588-0.538-0.77c-1.041-1.498-1.757-2.335-2.15-2.51
		c-0.395-0.173-1.143-0.099-2.247,0.226l-6.451,1.897c0.49,1.993,1.273,4.868,2.354,8.622l2.952-0.83
		c1.532-0.45,2.43-0.883,2.694-1.296c0.266-0.414,0.332-1.564,0.206-3.454l1.4-0.412c0.38,1.752,0.763,3.281,1.146,4.587
		c0.367,1.248,0.888,2.786,1.56,4.616l-1.4,0.411c-0.869-1.787-1.489-2.776-1.864-2.97c-0.376-0.193-1.302-0.071-2.779,0.363
		l-3.313,0.974l2.876,9.78l6.712-1.974c0.742-0.218,1.225-0.411,1.443-0.578c0.348-0.268,0.629-0.645,0.841-1.128
		c0.454-0.989,0.892-2.472,1.313-4.446l1.484-0.437c-0.087,2.114-0.108,4.636-0.065,7.565c-3.871,1-7.898,2.114-12.081,3.344
		c-1.9,0.56-4.533,1.404-7.902,2.533l-0.381-1.294c1.764-0.898,2.749-1.492,2.957-1.782c0.292-0.377,0.279-1.108-0.041-2.193
		l-0.175-0.595l-2.004-6.938l-1.646-5.599l-0.779-2.583c-0.367-1.249-0.657-2.005-0.869-2.272c-0.214-0.268-0.522-0.436-0.929-0.507
		C409.668,528.091,408.65,528.168,407.018,528.395z"/>
	<path d="M429.859,521.101l-0.581-1.164c2.501-1.104,4.548-2.055,6.142-2.851c1.216-0.607,2.883-1.479,5.001-2.615
		c1.535-0.833,2.828-1.511,3.876-2.034c1.971-0.984,3.659-1.513,5.063-1.586c1.939-0.104,3.722,0.336,5.346,1.319
		s3.006,2.618,4.147,4.903c1.268,2.537,1.802,5.09,1.604,7.657c-0.198,2.568-1.094,4.944-2.688,7.129
		c-1.326,1.829-3.269,3.382-5.827,4.659c-0.241,0.12-1.233,0.573-2.976,1.358c-1.743,0.785-2.72,1.23-2.929,1.335
		c-0.734,0.367-2.605,1.38-5.615,3.04l-0.581-1.164l0.602-0.457c1.259-0.93,1.954-1.56,2.087-1.887
		c0.132-0.328,0.117-0.707-0.045-1.138c-0.262-0.629-1.83-3.821-4.705-9.576c-2.109-4.226-3.34-6.584-3.691-7.077
		c-0.235-0.341-0.5-0.543-0.793-0.605c-0.294-0.063-1.195,0.125-2.705,0.564L429.859,521.101z M447.823,535.942
		c1.374-0.424,2.49-0.85,3.35-1.279c2.411-1.204,3.874-2.826,4.389-4.864c0.651-2.604,0.11-5.642-1.623-9.111
		c-1.486-2.978-3.307-4.892-5.461-5.741c-1.75-0.698-3.82-0.45-6.21,0.743c-1.007,0.503-2.173,1.21-3.499,2.121
		c0.712,1.688,2.175,4.749,4.39,9.185C444.431,529.542,445.985,532.525,447.823,535.942z"/>
	<path d="M466.165,500.703l0.656,1.123l-0.518,0.404c-1.251,0.947-1.939,1.621-2.066,2.021c-0.126,0.399,0.015,0.948,0.423,1.646
		l0.319,0.546l2.94,5.103l3.411,5.804l1.744,2.951c0.509,0.87,0.871,1.392,1.087,1.563c0.216,0.173,0.463,0.252,0.74,0.239
		c0.477-0.021,1.335-0.271,2.574-0.751c0.134-0.051,0.339-0.129,0.615-0.236l0.656,1.123c-2.14,1.101-3.998,2.111-5.577,3.034
		c-1.497,0.875-3.448,2.089-5.852,3.643l-0.656-1.123c1.399-1.211,2.157-1.892,2.272-2.041c0.179-0.227,0.278-0.461,0.299-0.703
		c0.016-0.321-0.183-0.844-0.592-1.568c-0.961-1.691-2.621-4.556-4.979-8.593l-3.273-5.498l-0.266-0.455
		c-0.474-0.81-0.895-1.263-1.263-1.359c-0.369-0.097-1.286,0.134-2.752,0.691c-0.169,0.059-0.413,0.14-0.732,0.244l-0.656-1.123
		c2.669-1.41,4.652-2.493,5.949-3.251C462.058,503.326,463.89,502.182,466.165,500.703z"/>
	<path d="M497.661,501.381l1.806,0.625c-0.574,2.359-1.301,4.327-2.179,5.904s-2.003,3.003-3.376,4.28
		c-2.899,2.698-5.949,3.994-9.146,3.887c-3.197-0.107-6.096-1.561-8.697-4.357c-2.762-2.969-4.05-6.229-3.863-9.779
		s1.932-6.862,5.234-9.935c1.056-0.982,2.151-1.846,3.29-2.592c1.138-0.747,2.645-1.568,4.518-2.462
		c0.467,0.605,0.98,1.209,1.539,1.81c0.966,1.038,2.211,2.248,3.736,3.63l-1.415,1.316c-1.962-1.248-3.143-1.95-3.544-2.105
		c-0.916-0.348-1.944-0.407-3.085-0.179c-1.14,0.228-2.327,0.916-3.563,2.065c-1.879,1.748-2.794,3.672-2.746,5.771
		c0.05,2.53,1.208,5.015,3.475,7.451c2.347,2.522,4.747,3.87,7.204,4.042c2.456,0.172,4.728-0.713,6.813-2.652
		C495.516,506.378,496.849,504.138,497.661,501.381z"/>
	<path d="M497.561,476.543l0.904,0.936l-0.407,0.516c-0.99,1.217-1.5,2.035-1.528,2.454c-0.027,0.418,0.24,0.917,0.802,1.498
		l0.439,0.455l4.066,4.26l4.691,4.83l2.394,2.452c0.701,0.725,1.176,1.146,1.427,1.262c0.25,0.116,0.51,0.135,0.776,0.057
		c0.458-0.133,1.232-0.58,2.322-1.34c0.118-0.081,0.299-0.206,0.541-0.376l0.904,0.936c-1.817,1.576-3.383,2.999-4.698,4.27
		c-1.247,1.205-2.854,2.848-4.82,4.928l-0.904-0.937c1.072-1.508,1.646-2.349,1.725-2.521c0.119-0.261,0.161-0.513,0.123-0.754
		c-0.062-0.314-0.378-0.776-0.947-1.383c-1.335-1.415-3.626-3.804-6.876-7.166l-4.483-4.565l-0.367-0.379
		c-0.65-0.675-1.167-1.015-1.548-1.021c-0.381-0.006-1.218,0.436-2.509,1.324c-0.151,0.098-0.369,0.234-0.653,0.411l-0.904-0.936
		c2.259-2.002,3.926-3.524,5.008-4.568C494.191,480.066,495.701,478.52,497.561,476.543z"/>
	<path d="M501.104,474.848l-0.933-0.907c1.213-1.064,2.304-2.092,3.27-3.086c0.974-1,2.074-2.224,3.3-3.668
		c2.373,0.316,9.177,0.943,20.412,1.88l-6.903-6.617c-1.712-1.583-2.706-2.423-2.98-2.519c-0.275-0.096-0.563-0.094-0.864,0.006
		c-0.301,0.099-1.128,0.677-2.481,1.73l-0.932-0.907c1.408-1.263,2.602-2.397,3.583-3.405c0.948-0.975,2.111-2.263,3.489-3.865
		l0.933,0.907c-0.203,0.311-0.357,0.535-0.464,0.678c-0.813,1.139-1.224,1.892-1.23,2.262c-0.007,0.368,0.255,0.844,0.784,1.424
		c1.095,1.229,3.474,3.624,7.136,7.187c2.353,2.288,5.084,4.856,8.198,7.705c-0.266,0.51-0.507,1.035-0.724,1.577l-10.677-1.092
		l-15.954-1.346l6.043,5.781l5.929,5.57c0.462,0.4,0.777,0.626,0.948,0.679c0.171,0.051,0.343,0.056,0.517,0.012
		c0.29-0.079,1.017-0.532,2.182-1.359c0.132-0.103,0.337-0.246,0.617-0.432l0.932,0.906c-1.5,1.357-2.677,2.475-3.527,3.349
		c-0.729,0.75-1.918,2.064-3.569,3.947l-0.933-0.907c0.203-0.31,0.357-0.544,0.462-0.703c0.789-1.112,1.202-1.831,1.239-2.154
		c0.022-0.207-0.029-0.42-0.152-0.638c-0.122-0.219-1.318-1.489-3.589-3.811c-3.278-3.369-6.123-6.227-8.534-8.571
		c-0.806-0.785-1.365-1.243-1.678-1.375c-0.313-0.133-0.643-0.147-0.989-0.043s-1.054,0.536-2.12,1.298
		C501.678,474.457,501.433,474.627,501.104,474.848z"/>
	<path d="M548.659,459.557l-1.022-0.805c0.674-1.273,1.016-2.048,1.023-2.324c0.009-0.276-0.098-0.502-0.319-0.677
		c-0.129-0.102-0.298-0.19-0.508-0.266c-0.503-0.159-2.043-0.598-4.618-1.316c-1.048,1.272-1.913,2.342-2.593,3.205
		c-0.558,0.707-1.474,1.898-2.749,3.574c1.605,2.938,2.523,4.497,2.754,4.679c0.222,0.175,0.444,0.23,0.666,0.166
		c0.223-0.063,0.9-0.588,2.036-1.573l1.021,0.805c-1.015,1.08-1.939,2.149-2.773,3.208c-0.899,1.142-1.763,2.342-2.589,3.6
		l-1.022-0.805c0.479-0.967,0.729-1.694,0.754-2.182c0.019-0.328-0.05-0.695-0.207-1.104c-0.298-0.815-1.697-3.659-4.198-8.53
		c-1.582-3.084-3.971-7.588-7.164-13.513l0.871-1.104c2.837,0.849,8.269,2.256,16.295,4.223c4.46,1.098,7.032,1.677,7.715,1.737
		c0.474,0.045,0.854,0.018,1.144-0.084c0.288-0.101,0.995-0.58,2.121-1.439l1.021,0.806c-1.385,1.549-2.628,3.023-3.73,4.423
		C551.499,455.641,550.189,457.406,548.659,459.557z M532.526,451.123l4.276,7.945l2.17-2.725c0.515-0.653,1.25-1.597,2.206-2.829
		L532.526,451.123z"/>
</g>
<g>
	<path d="M128.961,408.509h4.571l-1.644,6.855l6.006-3.701l1.378,4.362l-6.913,0.529l5.213,4.532l-3.664,2.645l-2.72-6.497
		l-2.682,6.497l-3.721-2.645l5.326-4.532l-6.932-0.661l1.454-4.23l5.968,3.701L128.961,408.509z"/>
</g>
<g>
	<path d="M557.88,408.509h4.571l-1.645,6.855l6.007-3.701l1.378,4.362l-6.912,0.529l5.213,4.532l-3.664,2.645l-2.72-6.497
		l-2.682,6.497l-3.721-2.645l5.326-4.532l-6.932-0.661l1.454-4.23l5.969,3.701L557.88,408.509z"/>
</g>
<g>
	<polygon points="447.559,141.051 341.146,109.414 249.871,139.24 249.25,137.339 341.117,107.319 448.129,139.134 	"/>
</g>
<g>
	<polygon points="432.897,190.564 430.897,190.564 430.897,142.84 263.539,142.84 263.539,190.204 261.539,190.204 261.539,140.84 
		432.897,140.84 	"/>
</g>
<g>
	<path d="M276.577,163.956c-0.038-0.142-0.152-0.255-0.343-0.255h-2.822c-0.114,0-0.191,0.085-0.229,0.199l-0.572,3.118
		c-0.038,0.199,0.038,0.369,0.19,0.51l0.839,0.652c0.153,0.142,0.381,0.255,0.381,0.34s-0.076,0.17-0.267,0.17h-4.386
		c-0.152,0-0.229-0.085-0.229-0.17s0.153-0.198,0.267-0.283l1.068-0.794c0.229-0.17,0.267-0.453,0.305-0.708l3.471-19.048
		c0.038-0.142,0.114-0.255,0.305-0.255h1.411c0.191,0,0.305,0.142,0.343,0.312l3.623,19.02c0.038,0.284,0.153,0.595,0.419,0.766
		l1.106,0.737c0.114,0.085,0.229,0.17,0.229,0.255s-0.077,0.17-0.267,0.17h-5.492c-0.19,0-0.267-0.085-0.267-0.17
		s0.152-0.17,0.267-0.255l1.03-0.765c0.153-0.113,0.229-0.312,0.19-0.567L276.577,163.956z M276.043,162.199
		c0.114,0,0.19-0.085,0.152-0.199l-1.334-6.944h-0.076l-1.259,6.973c-0.038,0.113,0.039,0.17,0.114,0.17H276.043z"/>
	<path d="M283.977,149.472c0-0.34-0.077-0.595-0.343-0.793l-1.144-0.822c-0.077-0.085-0.267-0.17-0.267-0.255s0.076-0.17,0.229-0.17
		h5.987c0.153,0,0.229,0.085,0.229,0.17s-0.19,0.17-0.267,0.255l-1.145,0.822c-0.267,0.198-0.343,0.453-0.343,0.793v17.801h1.525
		c0.458,0,0.839-0.085,0.991-0.425l2.365-5.499c0.076-0.114,0.076-0.199,0.229-0.199c0.115,0,0.191,0.085,0.191,0.199v6.944
		c0,0.255-0.114,0.397-0.419,0.397h-9.343c-0.153,0-0.229-0.085-0.229-0.17s0.19-0.142,0.267-0.255l1.144-0.822
		c0.267-0.198,0.343-0.453,0.343-0.793V149.472z"/>
	<path d="M298.279,157.153h0.839c0.19,0,0.343-0.056,0.419-0.198l1.335-1.984c0.076-0.114,0.114-0.17,0.229-0.17
		s0.153,0.056,0.153,0.17v6.009c0,0.085-0.039,0.142-0.153,0.142c-0.152,0-0.19-0.085-0.267-0.198l-1.297-2.069
		c-0.076-0.142-0.229-0.198-0.419-0.198h-0.839v8.617h2.174c0.496,0,0.877-0.17,1.029-0.51l2.06-5.442
		c0.038-0.113,0.152-0.17,0.267-0.17c0.114,0,0.191,0.085,0.191,0.17v7.115c0,0.142-0.115,0.255-0.306,0.255h-9.877
		c-0.153,0-0.229-0.085-0.229-0.17s0.19-0.142,0.267-0.255l1.144-0.822c0.267-0.198,0.343-0.453,0.343-0.793v-17.177
		c0-0.34-0.077-0.595-0.343-0.793l-1.144-0.822c-0.077-0.085-0.267-0.17-0.267-0.255s0.076-0.17,0.229-0.17h9.877
		c0.153,0,0.306,0.113,0.306,0.255v7.058c0,0.113-0.077,0.17-0.191,0.17c-0.153,0-0.267-0.085-0.306-0.198l-2.059-5.329
		c-0.153-0.369-0.496-0.539-0.992-0.539h-2.174V157.153z"/>
	<path d="M310.064,166.649c0,0.34,0.076,0.595,0.343,0.793l1.144,0.822c0.076,0.085,0.267,0.17,0.267,0.255s-0.076,0.17-0.229,0.17
		h-5.987c-0.153,0-0.229-0.085-0.229-0.17s0.19-0.17,0.267-0.255l1.144-0.822c0.267-0.198,0.343-0.453,0.343-0.793v-17.177
		c0-0.34-0.077-0.595-0.343-0.793l-1.144-0.822c-0.077-0.085-0.267-0.17-0.267-0.255s0.076-0.17,0.229-0.17h4.767
		c3.966,0,6.025,1.559,6.025,5.244c0,3.146-1.487,4.422-2.822,5.045c1.297,0.51,2.441,1.616,2.441,3.174v5.925
		c0,0.198,0.153,0.368,0.344,0.51l1.22,0.964c0.152,0.114,0.305,0.227,0.305,0.312s-0.19,0.085-0.381,0.085h-1.983
		c-1.754,0-2.441-0.851-2.441-1.814v-6.095c0-1.247-1.03-2.183-2.365-2.183h-0.648V166.649z M310.064,157.182h0.572
		c1.869,0,2.631-1.105,2.631-4.507c0-2.891-0.762-3.827-2.631-3.827h-0.572V157.182z"/>
	<path d="M323.032,157.153h0.839c0.19,0,0.343-0.056,0.419-0.198l1.334-1.984c0.076-0.114,0.115-0.17,0.229-0.17
		s0.152,0.056,0.152,0.17v6.009c0,0.085-0.038,0.142-0.152,0.142c-0.153,0-0.19-0.085-0.267-0.198l-1.296-2.069
		c-0.077-0.142-0.229-0.198-0.419-0.198h-0.839v8.617h2.174c0.496,0,0.877-0.17,1.03-0.51l2.059-5.442
		c0.039-0.113,0.153-0.17,0.267-0.17s0.191,0.085,0.191,0.17v7.115c0,0.142-0.114,0.255-0.305,0.255h-9.877
		c-0.152,0-0.229-0.085-0.229-0.17s0.19-0.142,0.267-0.255l1.144-0.822c0.267-0.198,0.344-0.453,0.344-0.793v-17.177
		c0-0.34-0.077-0.595-0.344-0.793l-1.144-0.822c-0.076-0.085-0.267-0.17-0.267-0.255s0.076-0.17,0.229-0.17h9.877
		c0.152,0,0.305,0.113,0.305,0.255v7.058c0,0.113-0.077,0.17-0.191,0.17c-0.153,0-0.267-0.085-0.305-0.198l-2.06-5.329
		c-0.152-0.369-0.496-0.539-0.992-0.539h-2.174V157.153z"/>
</g>
<g>
	<path d="M337.636,157.064h0.798c0.181,0,0.326-0.055,0.399-0.192l1.197-1.89c0.073-0.109,0.146-0.192,0.254-0.192
		s0.181,0.055,0.181,0.165v5.779c0,0.109-0.036,0.164-0.145,0.164s-0.145-0.082-0.218-0.192l-1.27-1.999
		c-0.073-0.137-0.218-0.192-0.399-0.192h-0.798v7.724c0,0.329,0.037,0.603,0.327,0.767l1.342,0.794
		c0.109,0.083,0.254,0.165,0.254,0.247s-0.072,0.164-0.218,0.164h-5.949c-0.145,0-0.217-0.082-0.217-0.164s0.181-0.137,0.254-0.247
		l1.088-0.794c0.254-0.192,0.327-0.438,0.327-0.767v-16.598c0-0.329-0.073-0.575-0.327-0.767l-1.088-0.794
		c-0.073-0.083-0.254-0.165-0.254-0.247c0-0.082,0.072-0.164,0.217-0.164h9.396c0.182,0,0.29,0.109,0.29,0.247v6.847
		c0,0.082-0.073,0.137-0.181,0.137c-0.109,0-0.254-0.082-0.29-0.192l-1.959-5.149c-0.145-0.356-0.472-0.521-0.943-0.521h-2.068
		V157.064z"/>
	<path d="M346.053,149.642c0-0.329-0.073-0.575-0.327-0.767l-1.088-0.794c-0.073-0.083-0.254-0.165-0.254-0.247
		c0-0.082,0.072-0.164,0.218-0.164h5.695c0.145,0,0.217,0.082,0.217,0.164c0,0.083-0.181,0.165-0.254,0.247l-1.088,0.794
		c-0.254,0.192-0.326,0.438-0.326,0.767v17.2h1.451c0.435,0,0.798-0.082,0.943-0.411l2.249-5.313
		c0.072-0.11,0.072-0.192,0.218-0.192c0.108,0,0.181,0.082,0.181,0.192v6.71c0,0.246-0.108,0.383-0.399,0.383h-8.887
		c-0.146,0-0.218-0.082-0.218-0.164s0.181-0.137,0.254-0.247l1.088-0.794c0.254-0.192,0.327-0.438,0.327-0.767V149.642z"/>
	<path d="M361.906,163.637c-0.036-0.137-0.145-0.247-0.327-0.247h-2.684c-0.109,0-0.182,0.083-0.218,0.192l-0.544,3.013
		c-0.037,0.191,0.036,0.356,0.181,0.493l0.798,0.629c0.145,0.137,0.363,0.247,0.363,0.329s-0.072,0.164-0.254,0.164h-4.171
		c-0.146,0-0.218-0.082-0.218-0.164s0.146-0.192,0.254-0.274l1.016-0.767c0.218-0.165,0.254-0.438,0.29-0.685l3.301-18.405
		c0.036-0.137,0.109-0.247,0.29-0.247h1.342c0.182,0,0.291,0.137,0.327,0.301l3.446,18.378c0.036,0.273,0.145,0.575,0.399,0.74
		l1.052,0.711c0.108,0.083,0.217,0.165,0.217,0.247s-0.073,0.164-0.254,0.164h-5.224c-0.181,0-0.254-0.082-0.254-0.164
		s0.146-0.165,0.254-0.247l0.98-0.739c0.145-0.109,0.217-0.301,0.181-0.548L361.906,163.637z M361.398,161.939
		c0.109,0,0.181-0.082,0.145-0.191l-1.27-6.71h-0.072l-1.197,6.738c-0.036,0.109,0.037,0.164,0.109,0.164H361.398z"/>
	<path d="M371.919,147.669c0.327,0,0.472,0.192,0.508,0.465l2.394,11.86h0.073l2.212-11.86c0.037-0.273,0.146-0.465,0.399-0.465
		h4.534c0.146,0,0.218,0.082,0.218,0.137c0,0.109-0.145,0.191-0.254,0.274l-0.907,0.794c-0.217,0.219-0.29,0.438-0.29,0.767v16.598
		c0,0.329,0.072,0.548,0.29,0.767l0.907,0.794c0.109,0.083,0.254,0.165,0.254,0.274c0,0.055-0.072,0.137-0.218,0.137h-5.078
		c-0.182,0-0.218-0.082-0.218-0.137c0-0.109,0.145-0.191,0.254-0.301l0.762-0.74c0.218-0.219,0.254-0.465,0.254-0.794v-13.256
		h-0.072l-2.757,15.009c-0.036,0.137-0.109,0.219-0.29,0.219h-0.798c-0.109,0-0.145-0.109-0.182-0.246l-2.938-14.982h-0.073v13.256
		c0,0.329,0.037,0.575,0.254,0.794l0.762,0.74c0.109,0.109,0.254,0.192,0.254,0.301c0,0.055-0.073,0.137-0.218,0.137h-4.462
		c-0.145,0-0.217-0.082-0.217-0.137c0-0.109,0.181-0.191,0.254-0.274l0.907-0.794c0.218-0.219,0.327-0.438,0.327-0.767v-16.598
		c0-0.329-0.109-0.548-0.327-0.767l-0.907-0.794c-0.073-0.083-0.254-0.165-0.254-0.274c0-0.055,0.072-0.137,0.217-0.137H371.919z"/>
	<path d="M387.774,147.669c0.326,0,0.471,0.192,0.508,0.465l2.394,11.86h0.073l2.212-11.86c0.037-0.273,0.145-0.465,0.399-0.465
		h4.534c0.146,0,0.219,0.082,0.219,0.137c0,0.109-0.146,0.191-0.254,0.274l-0.907,0.794c-0.217,0.219-0.29,0.438-0.29,0.767v16.598
		c0,0.329,0.073,0.548,0.29,0.767l0.907,0.794c0.108,0.083,0.254,0.165,0.254,0.274c0,0.055-0.072,0.137-0.219,0.137h-5.077
		c-0.182,0-0.218-0.082-0.218-0.137c0-0.109,0.146-0.191,0.254-0.301l0.762-0.74c0.218-0.219,0.254-0.465,0.254-0.794v-13.256
		h-0.072l-2.757,15.009c-0.036,0.137-0.109,0.219-0.29,0.219h-0.798c-0.108,0-0.145-0.109-0.182-0.246l-2.938-14.982h-0.072v13.256
		c0,0.329,0.036,0.575,0.254,0.794l0.762,0.74c0.109,0.109,0.254,0.192,0.254,0.301c0,0.055-0.073,0.137-0.218,0.137h-4.462
		c-0.145,0-0.217-0.082-0.217-0.137c0-0.109,0.181-0.191,0.254-0.274l0.907-0.794c0.217-0.219,0.326-0.438,0.326-0.767v-16.598
		c0-0.329-0.109-0.548-0.326-0.767l-0.907-0.794c-0.073-0.083-0.254-0.165-0.254-0.274c0-0.055,0.072-0.137,0.217-0.137H387.774z"/>
	<path d="M405.696,163.637c-0.037-0.137-0.146-0.247-0.326-0.247h-2.686c-0.108,0-0.181,0.083-0.217,0.192l-0.545,3.013
		c-0.036,0.191,0.037,0.356,0.182,0.493l0.798,0.629c0.145,0.137,0.363,0.247,0.363,0.329s-0.073,0.164-0.254,0.164h-4.172
		c-0.145,0-0.218-0.082-0.218-0.164s0.145-0.192,0.254-0.274l1.016-0.767c0.218-0.165,0.254-0.438,0.29-0.685l3.302-18.405
		c0.036-0.137,0.108-0.247,0.29-0.247h1.343c0.181,0,0.289,0.137,0.326,0.301l3.445,18.378c0.037,0.273,0.146,0.575,0.399,0.74
		l1.053,0.711c0.108,0.083,0.217,0.165,0.217,0.247s-0.073,0.164-0.254,0.164h-5.225c-0.181,0-0.254-0.082-0.254-0.164
		s0.146-0.165,0.254-0.247l0.98-0.739c0.146-0.109,0.218-0.301,0.181-0.548L405.696,163.637z M405.188,161.939
		c0.108,0,0.182-0.082,0.144-0.191l-1.27-6.71h-0.071l-1.198,6.738c-0.035,0.109,0.037,0.164,0.109,0.164H405.188z"/>
	<path d="M415.709,147.669c0.327,0,0.472,0.192,0.508,0.465l2.394,11.86h0.073l2.212-11.86c0.038-0.273,0.146-0.465,0.399-0.465
		h4.535c0.145,0,0.217,0.082,0.217,0.137c0,0.109-0.144,0.191-0.254,0.274l-0.906,0.794c-0.218,0.219-0.291,0.438-0.291,0.767
		v16.598c0,0.329,0.073,0.548,0.291,0.767l0.906,0.794c0.11,0.083,0.254,0.165,0.254,0.274c0,0.055-0.072,0.137-0.217,0.137h-5.078
		c-0.182,0-0.219-0.082-0.219-0.137c0-0.109,0.146-0.191,0.254-0.301l0.762-0.74c0.219-0.219,0.254-0.465,0.254-0.794v-13.256
		h-0.072l-2.757,15.009c-0.036,0.137-0.109,0.219-0.29,0.219h-0.798c-0.108,0-0.146-0.109-0.182-0.246l-2.938-14.982h-0.073v13.256
		c0,0.329,0.036,0.575,0.254,0.794l0.762,0.74c0.108,0.109,0.254,0.192,0.254,0.301c0,0.055-0.072,0.137-0.218,0.137h-4.462
		c-0.145,0-0.217-0.082-0.217-0.137c0-0.109,0.181-0.191,0.254-0.274l0.907-0.794c0.216-0.219,0.325-0.438,0.325-0.767v-16.598
		c0-0.329-0.109-0.548-0.325-0.767l-0.907-0.794c-0.073-0.083-0.254-0.165-0.254-0.274c0-0.055,0.072-0.137,0.217-0.137H415.709z"/>
</g>
<g>
	<path d="M303.578,171.561c-0.074-0.324-0.183-0.559-0.44-0.765l-1.21-0.971c-0.146-0.117-0.22-0.235-0.22-0.352
		c0-0.089,0.11-0.118,0.33-0.118h5.683c0.11,0,0.22,0.029,0.22,0.118c0,0.117-0.073,0.235-0.184,0.323l-0.953,0.706
		c-0.293,0.206-0.477,0.53-0.44,0.793l1.87,10.323h0.073l1.54-10.323c0.037-0.264-0.146-0.558-0.44-0.793l-0.879-0.706
		c-0.11-0.088-0.22-0.206-0.22-0.323c0-0.089,0.146-0.118,0.256-0.118h4.913c0.22,0,0.33,0.029,0.33,0.118
		c0,0.117-0.073,0.235-0.22,0.352l-1.21,0.971c-0.257,0.206-0.404,0.441-0.44,0.765l-2.895,19.526
		c-0.037,0.206-0.147,0.324-0.367,0.324h-1.283c-0.183,0-0.257-0.088-0.293-0.235L303.578,171.561z"/>
	<path d="M318.902,179.441h0.807c0.183,0,0.33-0.058,0.403-0.206l1.283-2.059c0.073-0.118,0.11-0.176,0.22-0.176
		c0.11,0,0.147,0.059,0.147,0.176v6.235c0,0.088-0.037,0.146-0.147,0.146c-0.146,0-0.183-0.088-0.256-0.206l-1.246-2.147
		c-0.074-0.147-0.221-0.206-0.403-0.206h-0.807v8.94h2.09c0.476,0,0.843-0.177,0.989-0.529l1.979-5.646
		c0.037-0.118,0.147-0.176,0.257-0.176s0.184,0.087,0.184,0.176v7.381c0,0.147-0.11,0.265-0.293,0.265h-9.495
		c-0.146,0-0.22-0.088-0.22-0.176c0-0.088,0.183-0.147,0.257-0.265l1.099-0.853c0.257-0.207,0.331-0.47,0.331-0.824v-17.821
		c0-0.353-0.074-0.617-0.331-0.823l-1.099-0.853c-0.074-0.088-0.257-0.176-0.257-0.265c0-0.088,0.073-0.176,0.22-0.176h9.495
		c0.146,0,0.293,0.118,0.293,0.265v7.323c0,0.117-0.074,0.177-0.184,0.177c-0.147,0-0.257-0.088-0.293-0.207l-1.979-5.528
		c-0.147-0.383-0.477-0.56-0.953-0.56h-2.09V179.441z"/>
	<path d="M330.23,189.293c0,0.354,0.073,0.617,0.329,0.824l1.1,0.853c0.073,0.088,0.256,0.176,0.256,0.265
		c0,0.088-0.073,0.176-0.22,0.176h-5.755c-0.146,0-0.22-0.088-0.22-0.176c0-0.088,0.183-0.177,0.257-0.265l1.099-0.853
		c0.257-0.207,0.331-0.47,0.331-0.824v-17.821c0-0.353-0.074-0.617-0.331-0.823l-1.099-0.853c-0.074-0.088-0.257-0.176-0.257-0.265
		c0-0.088,0.073-0.176,0.22-0.176h4.583c3.813,0,5.792,1.617,5.792,5.44c0,3.265-1.429,4.588-2.712,5.234
		c1.247,0.529,2.346,1.677,2.346,3.294v6.146c0,0.206,0.147,0.382,0.33,0.529l1.173,1c0.146,0.118,0.293,0.235,0.293,0.323
		c0,0.088-0.183,0.088-0.367,0.088h-1.906c-1.686,0-2.346-0.882-2.346-1.882v-6.323c0-1.294-0.99-2.264-2.273-2.264h-0.623V189.293z
		 M330.23,179.471h0.549c1.796,0,2.529-1.146,2.529-4.676c0-3-0.733-3.97-2.529-3.97h-0.549V179.471z"/>
	<path d="M339.872,171.472c0-0.353-0.073-0.617-0.33-0.823l-1.1-0.853c-0.073-0.088-0.256-0.176-0.256-0.265
		c0-0.088,0.073-0.176,0.22-0.176h5.755c0.146,0,0.22,0.088,0.22,0.176c0,0.088-0.184,0.177-0.257,0.265l-1.099,0.853
		c-0.257,0.207-0.331,0.47-0.331,0.823v17.821c0,0.354,0.073,0.617,0.331,0.824l1.099,0.853c0.073,0.088,0.257,0.176,0.257,0.265
		c0,0.088-0.073,0.176-0.22,0.176h-5.755c-0.147,0-0.22-0.088-0.22-0.176c0-0.088,0.183-0.177,0.256-0.265l1.1-0.853
		c0.256-0.207,0.33-0.47,0.33-0.824V171.472z"/>
	<path d="M349.404,170.766h-1.356c-0.219,0-0.33,0.147-0.403,0.324l-1.907,5.853c-0.037,0.117-0.146,0.177-0.293,0.177
		c-0.146,0-0.183-0.06-0.183-0.207v-7.439c0-0.059,0.073-0.118,0.183-0.118h10.741c0.109,0,0.183,0.059,0.183,0.118v7.439
		c0,0.147-0.037,0.207-0.183,0.207c-0.147,0-0.257-0.06-0.293-0.177l-1.906-5.853c-0.074-0.176-0.184-0.324-0.403-0.324h-1.356
		v18.527c0,0.354,0.037,0.617,0.293,0.824l1.1,0.853c0.11,0.088,0.256,0.176,0.256,0.265c0,0.088-0.036,0.176-0.22,0.176h-5.682
		c-0.184,0-0.22-0.088-0.22-0.176c0-0.088,0.146-0.177,0.256-0.265l1.1-0.853c0.257-0.207,0.293-0.47,0.293-0.824V170.766z"/>
	<path d="M362.859,186.5c-0.037-0.147-0.146-0.265-0.33-0.265h-2.713c-0.11,0-0.183,0.089-0.219,0.207l-0.55,3.235
		c-0.037,0.206,0.037,0.382,0.183,0.529l0.807,0.676c0.146,0.147,0.366,0.265,0.366,0.353c0,0.088-0.073,0.176-0.256,0.176h-4.215
		c-0.146,0-0.22-0.088-0.22-0.176c0-0.088,0.146-0.206,0.257-0.294l1.026-0.824c0.22-0.176,0.257-0.47,0.293-0.736l3.336-19.762
		c0.036-0.146,0.11-0.265,0.292-0.265h1.356c0.184,0,0.293,0.147,0.331,0.324l3.482,19.733c0.037,0.293,0.146,0.617,0.403,0.794
		l1.063,0.765c0.11,0.088,0.22,0.176,0.22,0.265c0,0.088-0.073,0.176-0.256,0.176h-5.279c-0.183,0-0.256-0.088-0.256-0.176
		c0-0.088,0.146-0.177,0.256-0.265l0.99-0.794c0.147-0.118,0.22-0.324,0.183-0.588L362.859,186.5z M362.346,184.676
		c0.11,0,0.183-0.088,0.146-0.206l-1.283-7.205h-0.073l-1.21,7.234c-0.037,0.118,0.037,0.176,0.11,0.176H362.346z"/>
	<path d="M370.521,170.766h-1.356c-0.219,0-0.329,0.147-0.403,0.324l-1.906,5.853c-0.037,0.117-0.146,0.177-0.293,0.177
		c-0.147,0-0.183-0.06-0.183-0.207v-7.439c0-0.059,0.073-0.118,0.183-0.118h10.741c0.109,0,0.183,0.059,0.183,0.118v7.439
		c0,0.147-0.036,0.207-0.183,0.207s-0.257-0.06-0.293-0.177l-1.906-5.853c-0.074-0.176-0.184-0.324-0.403-0.324h-1.357v18.527
		c0,0.354,0.037,0.617,0.293,0.824l1.1,0.853c0.11,0.088,0.256,0.176,0.256,0.265c0,0.088-0.037,0.176-0.22,0.176h-5.682
		c-0.184,0-0.22-0.088-0.22-0.176c0-0.088,0.147-0.177,0.257-0.265l1.1-0.853c0.256-0.207,0.293-0.47,0.293-0.824V170.766z"/>
	<path d="M380.054,171.472c0-0.353-0.074-0.617-0.33-0.823l-1.1-0.853c-0.074-0.088-0.256-0.176-0.256-0.265
		c0-0.088,0.073-0.176,0.22-0.176h5.755c0.146,0,0.22,0.088,0.22,0.176c0,0.088-0.184,0.177-0.256,0.265l-1.099,0.853
		c-0.257,0.207-0.331,0.47-0.331,0.823v17.821c0,0.354,0.073,0.617,0.331,0.824l1.099,0.853c0.073,0.088,0.256,0.176,0.256,0.265
		c0,0.088-0.073,0.176-0.22,0.176h-5.755c-0.146,0-0.22-0.088-0.22-0.176c0-0.088,0.183-0.177,0.256-0.265l1.1-0.853
		c0.256-0.207,0.33-0.47,0.33-0.824V171.472z"/>
	<path d="M393.729,176.971c0,0.088-0.073,0.147-0.22,0.147c-0.11,0-0.183-0.088-0.22-0.207c-0.586-2.382-2.346-6.087-4.032-6.087
		c-0.917,0-0.99,0.618-0.99,1.382c0,1.441,0.477,2.882,3.189,7.5c2.566,4.352,2.859,5.322,2.859,7.646
		c0,3.117-2.016,4.058-3.373,4.058c-0.989,0-1.613-0.324-2.052-0.559c-0.404-0.206-0.624-0.294-0.733-0.294
		c-0.147,0-0.44,0.206-1.173,0.647c-0.147,0.088-0.293,0.206-0.44,0.206c-0.147,0-0.183-0.059-0.183-0.147v-7.41
		c0-0.088,0.036-0.207,0.183-0.207c0.109,0,0.183,0.118,0.22,0.207c0.66,2.353,1.796,6.087,3.959,6.087
		c0.696,0,1.063-0.618,1.063-1.529c0-1.97-1.1-4.117-3.189-7.646c-1.979-3.353-2.712-5.588-2.712-7.735
		c0-2.793,1.503-3.676,3.373-3.676c0.697,0,1.503,0.324,2.053,0.676c0.183,0.088,0.403,0.177,0.549,0.177
		c0.147,0,0.513-0.206,0.843-0.471c0.33-0.234,0.55-0.382,0.77-0.382c0.184,0,0.257,0.147,0.257,0.324V176.971z"/>
</g>
<path fill-rule="evenodd" clip-rule="evenodd" fill="#FFFFFF" d="M325.128,427.246c0,0,2.247,0,2.247-2.399v-1.442l10.457-0.245
	l1.025-3.112l-2.055-0.957l2.47-1.688l4.508,0.714l1.428-2.631c0,0-2.051-0.963-1.019-5.527c1.019-4.565,4.713-9.116,4.713-9.116
	s2.458,0.234,5.336,0c2.867-0.244,5.123-0.963,6.146-1.692c1.025-0.713,2.465,0.245,3.49-1.191c1.012-1.442,2.871-1.921,2.048-3.849
	c-0.823-1.915-0.201-0.473-3.897-3.602c-3.694-3.125-4.724-1.687-4.3-7.69c0.403-5.986,2.454-8.865,2.454-8.865l-1.233-5.769
	c0,0-3.073,0.245-3.891,0.473c-0.818,0.24-1.227-0.708-1.434-1.915c-0.203-1.198,5.942-4.32,5.942-4.32l3.28,1.44
	c0,0,1.636-1.919,2.458-3.121c0.823-1.197,5.133-3.114,5.133-3.114l3.69-2.65l4.3,0.48l1.03-1.193l-1.443-4.087l1.443-0.957
	l0.203-2.646l1.84-2.393l3.08-1.917l0.819-2.417c0,0,1.236,3.363,3.28,2.641c2.049-0.707,14.132-9.116,17.626-11.756
	c3.493-2.64,4.922-4.561,4.922-4.561l0.62-1.447l-3.896-0.714h-1.021c0,0-2.675,0.964-2.261-6.241
	c0.414-7.211,1.232-15.854,1.232-15.854l-1.646-0.958l-9.222-0.963l-3.89,2.406l-4.929-4.56l-1.636-0.485l-3.278,1.208l-1.642-1.682
	l-0.824-6.721l-5.324-1.202l-1.642-1.449l-3.488-0.229c0,0-1.227-0.725-0.62-4.327c0.62-3.602,1.236-4.56,1.236-5.518
	c0-0.964,0-3.128-0.822-3.363c-0.823-0.241-3.075-1.449-3.075-1.449l-2.462-0.718l-2.253,0.718c0,0-1.024,0.725-0.61-1.43
	c0.406-2.166,2.454-3.609,2.454-3.609l-0.409-3.592l-2.045-1.682l-4.718-1.682c0,0-0.419-0.958,0.2-2.399
	c0.617-1.448,3.075-2.411,1.849-7.207c-1.231-4.805-2.867-6.726-2.867-8.158c0-1.446,1.64-3.367-1.019-5.05
	c-2.678-1.677-5.542-2.884-5.542-2.884l-1.849-3.353l0.41-1.203l8-4.56l-4.31-3.843l-6.967,6.966l-9.226-7.45l-7.182,4.327
	l-2.661,11.754c0,0-14.357,1.447-19.064,8.898l-0.414,2.155l0.822,2.156l0.197,2.171l1.445-0.963l1.437,0.963l1.019-1.688
	l0.616-1.446c0,0,0.412-0.479,1.435,0.484c1.025,0.962,2.458,2.155,2.458,2.155s3.494-0.468,4.108,2.41c0.606,2.885,0,3.848,0,5.764
	c0,1.916-0.414,4.799-1.023,6.476c-0.622,1.688-2.065,4.322-2.065,4.322s-2.041,0.239-2.65,1.681
	c-0.621,1.447-1.03,1.447-1.03,1.447s0,0.948-0.82-0.724c-0.827-1.675-2.047-4.564-2.047-4.564l-20.502,17.05
	c0,0,5.324,3.842,5.941,5.518c0.61,1.682,3.281,1.921,3.281,1.921l2.871,1.203l2.453,5.284l-0.197,1.671c0,0,0.414,0,2.051,1.209
	c1.645,1.191,2.665,3.362,2.665,3.362s-1.848,0.235-2.257,3.842c-0.407,3.593,3.079,6.717,3.897,8.397
	c0.816,1.678,2.868,2.399,2.868,2.399s4.92,0.725,5.127,1.916c0.202,1.209-2.255,1.447-2.255,1.447s-1.646-1.447-1.646-0.238
	c0,1.202,0.823,1.921,2.665,3.118c1.852,1.202,9.636,4.556,10.662,4.801c1.033,0.239,3.693,0,4.725,1.926
	c1.024,1.921,2.049,1.436,0.81,1.921c-1.231,0.479-4.306,0.719-4.306,0.719s-1.019,1.682-4.093,0
	c-3.078-1.683-4.517-1.683-5.946-1.683c-1.442,0-4.517-0.479-5.945,0.479c-1.438,0.965-5.749,5.04-5.749,5.04l-1.641,3.61
	l3.287,3.356l3.283,1.191l-2.46,0.968l-3.281,4.813c0,0,1.635,6.464,0.813,10.792c0,0,5.34,5.996,5.952,7.204
	c0.62,1.203,3.28-0.724,2.458,4.083c-0.819,4.799,0,12.489,0,12.489s1.236,4.311,2.462,5.277c1.232,0.964,1.435-0.244,2.055,2.881
	c0.61,3.116,1.019,4.32,1.429,5.284c0.413,0.957,0.62,0.716,0.207,1.915c-0.415,1.201-0.207,3.114,0.207,5.758
	c0.409,2.64,0.616,5.525,0.616,5.525s-1.439,3.842-1.237,4.803c0.208,0.97,0.828,1.438,0.828,1.438s0.203,2.889,1.232,3.842
	C322.66,426.764,325.128,427.246,325.128,427.246L325.128,427.246z"/>
<g>
	<path fill="#958168" d="M338.109,312.997c0,0,0.101-0.177,0.276-0.51c1.233-2.324,6.184-12.299,6.569-23.117
		c0.441-12.364,0.221-16.561,0.221-18.548c0-1.986,1.766-4.637,3.091-1.986c1.325,2.65,2.649,6.403,4.858,2.208
		s1.767-7.065,3.313-9.273c1.545-2.209,1.104-5.741,1.104-7.508s0-9.274,0-9.274l6.846,0.221c0,0,0,4.857-0.883,6.403
		c-0.883,1.545-3.313,10.378-2.65,13.69c0.663,3.313,1.104,3.534,2.429,1.545c1.325-1.986,6.846-15.897,9.937-11.481
		c3.091,4.416,4.416,5.961,2.649,8.831c-1.767,2.871-19.873,22.745-21.418,42.617c0,0-1.545,7.287,1.987,5.079
		c0,0,1.324-0.001,1.104,1.987c-0.22,1.987,0,5.299-1.545,6.403s-7.066,5.741-8.17,9.053c-1.104,3.313-0.883,5.078-1.987,5.741
		c-1.104,0.664-0.662,0.442-1.324,2.872c-0.663,2.429-0.883,4.858-1.987,6.624s-9.053,12.803-14.574,32.234
		c0,0-4.637,11.925-9.495,14.133c-4.858,2.207-4.858,3.09-6.183,1.986c-1.325-1.104-3.092-3.09-0.883-6.623
		c2.208-3.534,4.636-7.729,5.299-9.938c0.663-2.207,3.091-12.588,2.871-15.898c-0.221-3.312,0.663-6.624,2.208-9.273
		c1.545-2.65,3.754-4.417,3.974-8.392c0.221-3.975-0.441-8.611,1.325-10.378S337.446,316.091,338.109,312.997z"/>
	<path fill="#7D896F" d="M376.53,258.677c0,0-4.195-4.859-1.545-4.196c2.65,0.663,11.262,3.975,9.495,0.663
		c-1.767-3.312-3.092-4.416-3.312-5.741c-0.221-1.325-1.326-6.403,2.649-4.416s11.261,9.936,8.612,21.418s-5.3,15.9-7.287,17.666
		c-1.987,1.765-6.404,7.949-24.73,6.403l-1.104-0.664l2.65-6.403c0,0,19.209,2.871,22.743-9.052
		C388.234,262.431,376.53,258.677,376.53,258.677z"/>
	<path fill="#7D896F" d="M345.176,282.524c0,0-14.794,3.752-7.066,24.509c7.729,20.758,20.756,42.396,2.208,40.851l-4.416,7.287
		c0,0,16.781-0.884,18.106-9.054c1.325-8.17-0.221-21.418-2.429-24.951c-2.208-3.533-15.235-28.926-6.624-33.122L345.176,282.524z"
		/>
	<path fill="#7D896F" d="M325.965,340.376c0,0-20.314,3.75-20.093,14.791s2.429,15.458,6.183,17.666
		c3.754,2.208,19.873,21.198,12.586,22.522s-17.445-3.093-21.64-15.016c0,0-2.871-1.545-2.871,2.871c0,4.415,3.533,8.39,5.741,11.04
		c2.208,2.649,15.016,8.39,21.198,6.403c6.183-1.986,8.611-8.611,6.183-13.469c-2.429-4.858-5.079-13.47-9.937-15.898
		c-4.857-2.429-15.898-14.792-0.662-21.857C322.653,349.43,327.952,345.677,325.965,340.376z"/>
</g>
</svg>
